<svg width="150" height="150" viewBox="0 0 909 661" fill="#575757" xmlns="http://www.w3.org/2000/svg">
    <path
        d="M286.133 53.8361L201.569 110.146C180.269 124.329 160.777 141.055 143.523 159.954L61.3409 249.973C2.43547 314.495 -14.3443 407.038 18.1579 488.134C48.3857 563.555 116.523 617.146 196.943 628.75L396.043 657.479C470.033 668.156 544.608 642.305 596.116 588.125L636.921 545.203C668.236 512.264 714.703 498.461 758.921 508.963L769.79 511.544C816.288 522.587 864.671 502.902 890.251 462.533C903.998 440.839 909.87 415.079 906.882 389.571L899.151 323.559C894.512 283.951 877 246.961 849.304 218.268C831.631 199.959 817.991 178.15 809.264 154.246L808.762 152.87C788.443 97.213 743.201 54.3042 686.547 36.9573L646.95 24.8333C631.017 19.9547 614.67 16.5494 598.114 14.6603L496.433 3.05776C422.537 -5.37443 348.04 12.6133 286.133 53.8361Z"
        stroke="#c7c7c7" stroke-width="2" />
</svg>