<svg id="text" width="662" height="251" viewBox="0 0 662 251" fill="none" xmlns="http://www.w3.org/2000/svg">
<g id="SRiSHTi-text (Traced)">
<path id="Layer 1" fill-rule="evenodd" clip-rule="evenodd" d="M27.4 3.83424L22.56 7.66924L16.853 13.8452L11.147 20.0202L7.085 28.2602L3.024 36.5002L1.542 44.3382L0.0599995 52.1762V57.9042V63.6332L1.129 69.5662L2.197 75.5002L5.057 87.0002L7.916 98.5002L12.979 114.37L18.042 130.24L21.664 144.712L25.285 159.184L24.881 168.842L24.476 178.5L21.883 184.12L19.29 189.74L15.537 193.894L11.784 198.048L5.892 201.684L0 205.321L0.289999 205.911L0.578999 206.5L5.33 215.75L10.08 225H10.986H11.892L19.369 219.999L26.846 214.998L32.396 209.004L37.947 203.009L41.517 195.754L45.088 188.5L46.676 181L48.264 173.5L47.697 163L47.131 152.5L45.052 144L42.972 135.5L35.538 112L28.104 88.5002L25.383 77.5002L22.663 66.5002L22.611 56.9482L22.56 47.3962L26.483 39.4482L30.406 31.5002L38.295 23.5002L46.184 15.5002L45.171 14.0002L44.158 12.5002L40.359 6.26724L36.56 0.035244L34.4 0.0172443L32.24 0.000244141L27.4 3.83424ZM207.954 4.84824L201.55 9.69624L197.937 14.1062L194.324 18.5152L191.157 23.5072L187.99 28.5002L185.338 36.5002L182.686 44.5002L182.661 57.5002L182.635 70.5002L185.878 83.5002L189.122 96.5002L195.556 117.5L201.991 138.5L204.612 149.5L207.233 160.5L206.849 169.017L206.466 177.535L203.311 184.278L200.155 191.022L195.126 195.843L190.097 200.665L186.329 202.583L182.56 204.5L182.136 204.757L181.712 205.014L186.636 214.93L191.56 224.845L192.449 224.922L193.337 225L201.61 219.495L209.883 213.991L214.567 208.781L219.25 203.572L222.586 196.949L225.921 190.327L227.445 184.413L228.969 178.5L229.631 171.955L230.294 165.411L228.594 154.571L226.895 143.732L222.928 130.116L218.961 116.5L214.552 103L210.144 89.5002L207.374 79.0002L204.605 68.5002L204.583 57.4792L204.56 46.4582L207.872 39.7292L211.185 33.0012L219.333 24.3932L227.481 15.7852L225.111 11.6432L222.74 7.50024L220.388 3.75024L218.035 0.000244141H216.197H214.358L207.954 4.84824ZM67.26 8.20024L66.06 9.40024V110.181V210.962L68.31 211.526L70.56 212.09L79.06 211.795L87.56 211.5L87.82 164.75L88.08 118H88.993H89.907L92.894 120.514L95.881 123.027L97.614 127.764L99.347 132.5L100.247 166L101.146 199.5L101.686 205.783L102.226 212.066L112.893 211.783L123.56 211.5L123.855 194L124.15 176.5L123.151 155L122.153 133.5L120.105 125.586L118.058 117.672L115.5 113.308L112.943 108.944L111.066 107.772L109.189 106.6L112.581 102.845L115.973 99.0902L117.94 95.2352L119.907 91.3802L121.688 84.9402L123.469 78.5002L123.508 61.0002L123.547 43.5002L121.778 37.0002L120.009 30.5002L117.341 25.0002L114.673 19.5002L109.828 14.7772L104.983 10.0552L99.84 8.52724L94.697 7.00024H81.578H68.46L67.26 8.20024ZM247.178 8.35824L246.05 9.71724L246.305 110.608L246.56 211.5H257.06H267.56L267.819 156.75L268.077 102H278.069H288.06V156.481V210.962L290.31 211.526L292.56 212.09L301.06 211.795L309.56 211.5L309.815 110.608L310.07 9.71724L308.942 8.35824L307.815 7.00024H299.138H290.46L289.26 8.20024L288.06 9.40024V43.7002V78.0002H278.06H268.06V43.7002V9.40024L266.86 8.20024L265.66 7.00024H256.982H248.305L247.178 8.35824ZM325.164 9.25024L324.318 11.5002L322.549 19.7292L320.78 27.9582L322.042 29.4792L323.305 31.0002H333.682H344.06V120.3V209.6L345.26 210.8L346.46 212H355.638H364.815L365.948 210.635L367.081 209.269L366.821 120.135L366.56 31.0002H377.243H387.925L388.462 29.2502L388.998 27.5002L390.531 18.6052L392.065 9.71124L390.94 8.35524L389.815 7.00024H357.913H326.01L325.164 9.25024ZM149.56 14.8282L146.56 16.7342L144.166 19.3342L141.773 21.9352L141.29 26.9562L140.808 31.9772L142.064 35.0092L143.319 38.0402L146.219 40.4802L149.119 42.9202L152.492 43.5532L155.866 44.1862L159.247 42.5822L162.628 40.9772L165.344 36.7882L168.06 32.6002V28.4482V24.2962L165.81 20.9902L163.56 17.6842L161.06 15.8532L158.56 14.0232L155.56 13.4732L152.56 12.9222L149.56 14.8282ZM407.061 14.1022L404.561 15.1202L402.215 17.3102L399.87 19.5002L398.465 22.2002L397.06 24.9012V28.4822V32.0642L398.439 35.3642L399.818 38.6642L402.54 40.8062L405.263 42.9472L408.643 43.5812L412.022 44.2162L415.752 42.2802L419.481 40.3452L421.849 35.9232L424.217 31.5002L423.748 27.1362L423.28 22.7722L421.358 20.1982L419.436 17.6242L416.998 15.8572L414.56 14.0902L412.06 13.5872L409.56 13.0842L407.061 14.1022ZM95.536 32.3852L97.921 34.7702L99.234 39.1352L100.547 43.5002L100.552 63.0002L100.558 82.5002L98.754 87.6732L96.95 92.8462L95.66 93.9172L94.369 94.9882L91.215 95.6192L88.06 96.2502V63.1252V30.0002H90.605H93.151L95.536 32.3852ZM144.534 60.2142L144.043 61.5002L144.301 136.5L144.56 211.5H154.56H164.56V135.5V59.5002L154.793 59.2142L145.025 58.9272L144.534 60.2142ZM400.534 60.2142L400.043 61.5002L400.301 136.5L400.56 211.5H410.56H420.56V135.5V59.5002L410.793 59.2142L401.025 58.9272L400.534 60.2142ZM454.56 62.9292L451.56 63.6532L449.06 64.9452L446.56 66.2362L442.81 69.8212L439.06 73.4062V74.1132V74.8202L442.271 80.4102L445.481 86.0002H446.876H448.271L451.242 83.5002L454.213 81.0002H457.914H461.615L463.761 82.5032L465.907 84.0062L467.099 87.6172L468.291 91.2292L468.32 98.3642L468.35 105.5L466.182 114.081L464.015 122.662L461.06 130.337L458.104 138.013L456.078 142.461L454.052 146.909L450.613 155.439L447.173 163.97L444.452 174.735L441.731 185.5L441.646 197.5L441.56 209.5H463.56H485.56V201.5V193.5L471.303 193.222L457.045 192.945L457.641 188.722L458.237 184.5L459.654 178.646L461.072 172.793L464.937 163.146L468.802 153.5L474.333 139.914L479.863 126.328L481.99 118.749L484.117 111.169L484.95 104.335L485.783 97.5002L484.888 90.2022L483.992 82.9032L481.678 77.6702L479.363 72.4372L474.703 68.3352L470.043 64.2332L465.609 63.1172L461.174 62.0002L459.367 62.1022L457.56 62.2052L454.56 62.9292ZM567.969 63.5052L563.378 64.9682L558.719 69.0692L554.06 73.1702V74.0052V74.8402L557.31 80.4012L560.56 85.9612L561.916 85.9802L563.271 86.0002L566.242 83.5002L569.213 81.0002H573.482H577.75L579.5 82.9342L581.25 84.8682L582.611 88.6842L583.972 92.5002L584.016 98.1222L584.06 103.744L581.671 113.159L579.283 122.575L571.778 141.038L564.274 159.5L561.766 167.5L559.259 175.5L557.6 185.5L555.94 195.5L556.25 202.5L556.56 209.5L578.81 209.769L601.06 210.038V201.519V193H587.06H573.06V189.611V186.221L575.473 177.361L577.887 168.5L579.464 164.263L581.041 160.026L586.126 148.763L591.21 137.5L595.082 125.927L598.953 114.353L599.97 106.242L600.987 98.1312L600.063 90.0302L599.139 81.9292L595.972 75.9852L592.804 70.0422L589.682 67.6772L586.56 65.3122L584.483 64.2132L582.406 63.1152L577.483 62.5782L572.56 62.0422L567.969 63.5052ZM500.176 64.3602L499.047 65.7212L499.303 137.61L499.56 209.5H507.06H514.56L515.081 177L515.602 144.5L515.831 147.062L516.06 149.623L520.472 165.062L524.884 180.5L530.068 194L535.252 207.5L535.755 209.181L536.257 210.862L537.627 211.388L538.998 211.913L546.029 208.808L553.06 205.702V204.684V203.665L547.678 191.082L542.295 178.5L536.792 161.5L531.29 144.5L528.813 132.881L526.336 121.263L532.284 108.381L538.232 95.5002L543.646 83.5072L549.06 71.5142V70.4882V69.4622L543.183 66.2312L537.306 63.0002H536.209H535.111L533.691 65.7502L532.271 68.5002L526.519 82.5002L520.768 96.5002L517.948 103.5L515.129 110.5L515.094 87.3572L515.06 64.2142L513.478 63.6072L511.896 63.0002H506.601H501.305L500.176 64.3602ZM615.704 64.3292L611.847 65.4052L612.526 71.4032L613.205 77.4022L614.161 79.1892L615.118 80.9762L617.339 81.4342L619.56 81.8912L624.093 82.4742L628.625 83.0572L631.794 84.9842L634.963 86.9122L636.569 90.0172L638.175 93.1232L638.24 98.8112L638.305 104.5L637.169 108.656L636.034 112.812L631.972 118.894L627.91 124.976L619.89 132.356L611.87 139.736L616.559 146.118L621.249 152.5L621.597 152.859L621.945 153.218L624.807 151.18L627.668 149.143L630.865 151.644L634.061 154.146L636.811 158.823L639.56 163.5V171.073V178.647L637.077 182.27L634.594 185.893L630.933 187.951L627.271 190.009L622.416 190.643L617.56 191.276L616.31 192.261L615.06 193.245V201.061V208.877L619.737 209.579L624.415 210.28L630.98 209.071L637.545 207.861L642.408 205.214L647.271 202.567L651.119 198.196L654.966 193.825L657.144 189.326L659.322 184.827L660.392 177.401L661.462 169.975L660.336 163.4L659.21 156.826L656.513 151.314L653.816 145.802L648.463 140.534L643.109 135.265L645.141 133.427L647.172 131.588L651.14 125.544L655.107 119.5L657.083 113.145L659.06 106.789V99.5762V92.3632L657.492 86.9322L655.925 81.5002L652.439 76.3492L648.952 71.1972L645.256 68.6402L641.56 66.0822L637.184 64.5412L632.809 63.0002L626.184 63.1262L619.56 63.2532L615.704 64.3292ZM80.276 238.75L80.56 249.5L89.755 249.787L98.95 250.074L100.044 248.03L101.138 245.986L100.849 237.243L100.56 228.5L98.35 228.186L96.14 227.871L95.85 236.686L95.56 245.5H90.06H84.56L84.271 236.75L83.982 228H81.987H79.992L80.276 238.75ZM106.234 230.314L104.06 232.629V241.314V250H107.022H109.984L109.772 241.999L109.56 233.999H115.31L121.06 234V242V250H123.56H126.06V241.174V232.349L123.746 230.174L121.431 228H114.92H108.409L106.234 230.314ZM129.06 237.279V246.69L130.889 248.345L132.717 250H141.889H151.06V249.082V248.164L151.573 246.832L152.086 245.5H143.459H134.832L134.696 237L134.56 228.5L131.81 228.184L129.06 227.867V237.279ZM156.234 230.314L154.06 232.629V239.659V246.69L155.889 248.345L157.717 250H166.782H175.846L176.453 248.418L177.06 246.836V246.418V246H168.56H160.06V244V242H168.56H177.06V239.5V237H168.56H160.06V235.5V234H168.56H177.06L177.028 232.75L176.996 231.5L175.668 229.75L174.34 228H166.374H158.409L156.234 230.314ZM184.31 230.675L180.06 233.15V241.575V250H182.56H185.06V247V244H190.887H196.714L196.273 247L195.833 250H198.947H202.06L202.058 241.75L202.055 233.5L196.792 230.75L191.528 228L190.044 228.1L188.56 228.2L184.31 230.675ZM206.133 230.635L204.06 233.27V235.461V237.651L206.374 239.826L208.689 242H214.874H221.06V244V246H212.453H203.846L204.453 247.582L205.06 249.164V249.582V250H214.405H223.75L225.405 248.171L227.06 246.343V243.846V241.349L224.746 239.174L222.431 237H216.246H210.06V235.5V234H218.56H227.06L227.028 232.75L226.996 231.5L225.668 229.75L224.34 228H216.272H208.205L206.133 230.635ZM230.06 239V250H232.56H235.06V246.589V243.178L240.943 242.839L246.826 242.5L246.463 246.25L246.099 250H249.114H252.128L251.844 239.262L251.56 228.524L249.68 228.163L247.8 227.803L246.989 229.115L246.178 230.427L246.437 233.714L246.696 237H240.878H235.06V232.5V228H232.56H230.06V239ZM268.563 229.991L267.931 231.982L268.554 232.991L269.178 234H273.119H277.06V242V250H279.56H282.06V242V234H286.56H291.06V231V228H280.127H269.195L268.563 229.991ZM294.06 238.93V250H296.56H299.06L299.058 246.25L299.056 242.5L305.174 242.845L311.291 243.189L310.738 246.595L310.186 250H313.157H316.128L315.844 239.25L315.56 228.5L313.31 228.18L311.06 227.861V232.43V237H305.117H299.175L298.867 232.75L298.56 228.5L296.31 228.18L294.06 227.861V238.93ZM320.292 230.75L318.387 233.5L318.311 239.5L318.235 245.5L319.694 247.786L321.153 250.071L330.845 249.786L340.537 249.5L340.872 247.75L341.207 246H332.633H324.06V244V242H332.56H341.06V239.5V237H332.56H324.06V235.5V234H332.56H341.06V232.934V231.869L340.025 229.934L338.99 228H330.593H322.196L320.292 230.75ZM357.435 229.466L356.846 231L357.422 232.5L357.997 234H362.029H366.06V242V250H368.56H371.06V242.057V234.115L375.31 233.807L379.56 233.5V231V228.5L368.792 228.216L358.023 227.932L357.435 229.466ZM387.81 230.566L383.06 233.038V241.519V250H385.56H388.06V247V244H393.887H399.714L399.273 247L398.833 250H401.987H405.141L404.85 241.751L404.56 233.501L399.56 230.774L394.56 228.047L393.56 228.07L392.56 228.093L387.81 230.566ZM408.06 237.811V247.755L409.459 248.916L410.859 250.078L420.209 249.789L429.56 249.5L429.849 247.5L430.138 245.5L421.822 245.817L413.505 246.134L413.533 237.317L413.56 228.5L410.81 228.184L408.06 227.867V237.811ZM434.81 230.47L433.06 232.876V240.238V247.6L434.26 248.8L435.46 250H444.653H453.846L454.453 248.418L455.06 246.836L455.062 246.168L455.065 245.5L446.562 245.823L438.06 246.147V244.073V242H446.56H455.06V239.5V237H446.56H438.06V235.5V234H446.56H455.06L455.028 232.75L454.996 231.5L453.668 229.75L452.34 228L444.45 228.031L436.56 228.063L434.81 230.47ZM460.234 230.314L458.06 232.629V241.314V250H460.56H463.06V242V234H468.817H474.575L474.212 242L473.848 250H476.954H480.06V241.174V232.349L477.746 230.174L475.431 228H468.92H462.409L460.234 230.314ZM483.727 228.667L483.06 229.333V231.667V234L487.31 233.998L491.56 233.995L491.234 241.998L490.908 250H493.984H497.06V242V234H501.06H505.06V231V228H494.727H484.393L483.727 228.667ZM522.06 237.8V247.6L523.26 248.8L524.46 250H534.105H543.75L545.446 248.126L547.142 246.252L546.851 237.376L546.56 228.5H544.06H541.56L541.271 237.25L540.982 246H539.06H537.138L536.849 237.25L536.56 228.5L533.737 228.177L530.914 227.853L531.237 236.929L531.56 246.005L529.31 246.002L527.06 246V237V228H524.56H522.06V237.8ZM549.769 228.624L549.06 229.333V239.667V250H552.094H555.128L554.844 239.25L554.56 228.5L552.519 228.208L550.478 227.916L549.769 228.624ZM558.06 230.966V234H562.06H566.06V242V250H569.06H572.06V242V234H576.126H580.193L579.876 231.25L579.56 228.5L568.81 228.216L558.06 227.932V230.966ZM583.769 228.624L583.06 229.333V239.667V250H586.169H589.279L588.879 246.578L588.48 243.156L594.272 242.828L600.064 242.5L600.062 246.25L600.06 250H602.56H605.06V239V228H602.56H600.06V232.5V237L594.31 237.001L588.56 237.003V232.751V228.5L586.519 228.208L584.478 227.916L583.769 228.624ZM608.769 228.624L608.06 229.333V239.667V250H611.094H614.128L613.844 239.25L613.56 228.5L611.519 228.208L609.478 227.916L608.769 228.624ZM619.099 230.189L617.06 232.377V241.189V250H619.56H622.06V241.95V233.9L627.725 234.2L633.39 234.5L633.16 242.25L632.929 250H635.495H638.06V241V232L636.06 230L634.06 228H627.599H621.138L619.099 230.189ZM194.11 235.526L197.06 237.051V237.776L197.061 238.5H191.063H185.066L185.063 237.403L185.06 236.306L187.31 235.22L189.56 234.135L190.36 234.068L191.159 234L194.11 235.526ZM397.11 235.526L400.06 237.051V237.776L400.061 238.5H394.063H388.066L388.063 237.403L388.06 236.306L390.31 235.22L392.56 234.135L393.36 234.068L394.159 234L397.11 235.526Z" fill="#0000FF"/>
<g id="Layer 2" filter="url(#filter0_i_39_78)">
<path fill-rule="evenodd" clip-rule="evenodd" d="M27.4 3.83424L22.56 7.66924L16.853 13.8452L11.147 20.0202L7.085 28.2602L3.024 36.5002L1.542 44.3382L0.0599995 52.1762V57.9042V63.6332L1.129 69.5662L2.197 75.5002L5.057 87.0002L7.916 98.5002L12.979 114.37L18.042 130.24L21.664 144.712L25.285 159.184L24.881 168.842L24.476 178.5L21.883 184.12L19.29 189.74L15.537 193.894L11.784 198.048L5.892 201.684L0 205.321L0.289999 205.911L0.578999 206.5L5.33 215.75L10.08 225H10.986H11.892L19.369 219.999L26.846 214.998L32.396 209.004L37.947 203.009L41.517 195.754L45.088 188.5L46.676 181L48.264 173.5L47.697 163L47.131 152.5L45.052 144L42.972 135.5L35.538 112L28.104 88.5002L25.383 77.5002L22.663 66.5002L22.611 56.9482L22.56 47.3962L26.483 39.4482L30.406 31.5002L38.295 23.5002L46.184 15.5002L45.171 14.0002L44.158 12.5002L40.359 6.26724L36.56 0.035244L34.4 0.0172443L32.24 0.000244141L27.4 3.83424ZM207.954 4.84824L201.55 9.69624L197.937 14.1062L194.324 18.5152L191.157 23.5072L187.99 28.5002L185.338 36.5002L182.686 44.5002L182.661 57.5002L182.635 70.5002L185.878 83.5002L189.122 96.5002L195.556 117.5L201.991 138.5L204.612 149.5L207.233 160.5L206.849 169.017L206.466 177.535L203.311 184.278L200.155 191.022L195.126 195.843L190.097 200.665L186.329 202.583L182.56 204.5L182.136 204.757L181.712 205.014L186.636 214.93L191.56 224.845L192.449 224.922L193.337 225L201.61 219.495L209.883 213.991L214.567 208.781L219.25 203.572L222.586 196.949L225.921 190.327L227.445 184.413L228.969 178.5L229.631 171.955L230.294 165.411L228.594 154.571L226.895 143.732L222.928 130.116L218.961 116.5L214.552 103L210.144 89.5002L207.374 79.0002L204.605 68.5002L204.583 57.4792L204.56 46.4582L207.872 39.7292L211.185 33.0012L219.333 24.3932L227.481 15.7852L225.111 11.6432L222.74 7.50024L220.388 3.75024L218.035 0.000244141H216.197H214.358L207.954 4.84824ZM67.26 8.20024L66.06 9.40024V110.181V210.962L68.31 211.526L70.56 212.09L79.06 211.795L87.56 211.5L87.82 164.75L88.08 118H88.993H89.907L92.894 120.514L95.881 123.027L97.614 127.764L99.347 132.5L100.247 166L101.146 199.5L101.686 205.783L102.226 212.066L112.893 211.783L123.56 211.5L123.855 194L124.15 176.5L123.151 155L122.153 133.5L120.105 125.586L118.058 117.672L115.5 113.308L112.943 108.944L111.066 107.772L109.189 106.6L112.581 102.845L115.973 99.0902L117.94 95.2352L119.907 91.3802L121.688 84.9402L123.469 78.5002L123.508 61.0002L123.547 43.5002L121.778 37.0002L120.009 30.5002L117.341 25.0002L114.673 19.5002L109.828 14.7772L104.983 10.0552L99.84 8.52724L94.697 7.00024H81.578H68.46L67.26 8.20024ZM247.178 8.35824L246.05 9.71724L246.305 110.608L246.56 211.5H257.06H267.56L267.819 156.75L268.077 102H278.069H288.06V156.481V210.962L290.31 211.526L292.56 212.09L301.06 211.795L309.56 211.5L309.815 110.608L310.07 9.71724L308.942 8.35824L307.815 7.00024H299.138H290.46L289.26 8.20024L288.06 9.40024V43.7002V78.0002H278.06H268.06V43.7002V9.40024L266.86 8.20024L265.66 7.00024H256.982H248.305L247.178 8.35824ZM325.164 9.25024L324.318 11.5002L322.549 19.7292L320.78 27.9582L322.042 29.4792L323.305 31.0002H333.682H344.06V120.3V209.6L345.26 210.8L346.46 212H355.638H364.815L365.948 210.635L367.081 209.269L366.821 120.135L366.56 31.0002H377.243H387.925L388.462 29.2502L388.998 27.5002L390.531 18.6052L392.065 9.71124L390.94 8.35524L389.815 7.00024H357.913H326.01L325.164 9.25024ZM149.56 14.8282L146.56 16.7342L144.166 19.3342L141.773 21.9352L141.29 26.9562L140.808 31.9772L142.064 35.0092L143.319 38.0402L146.219 40.4802L149.119 42.9202L152.492 43.5532L155.866 44.1862L159.247 42.5822L162.628 40.9772L165.344 36.7882L168.06 32.6002V28.4482V24.2962L165.81 20.9902L163.56 17.6842L161.06 15.8532L158.56 14.0232L155.56 13.4732L152.56 12.9222L149.56 14.8282ZM407.061 14.1022L404.561 15.1202L402.215 17.3102L399.87 19.5002L398.465 22.2002L397.06 24.9012V28.4822V32.0642L398.439 35.3642L399.818 38.6642L402.54 40.8062L405.263 42.9472L408.643 43.5812L412.022 44.2162L415.752 42.2802L419.481 40.3452L421.849 35.9232L424.217 31.5002L423.748 27.1362L423.28 22.7722L421.358 20.1982L419.436 17.6242L416.998 15.8572L414.56 14.0902L412.06 13.5872L409.56 13.0842L407.061 14.1022ZM95.536 32.3852L97.921 34.7702L99.234 39.1352L100.547 43.5002L100.552 63.0002L100.558 82.5002L98.754 87.6732L96.95 92.8462L95.66 93.9172L94.369 94.9882L91.215 95.6192L88.06 96.2502V63.1252V30.0002H90.605H93.151L95.536 32.3852ZM144.534 60.2142L144.043 61.5002L144.301 136.5L144.56 211.5H154.56H164.56V135.5V59.5002L154.793 59.2142L145.025 58.9272L144.534 60.2142ZM400.534 60.2142L400.043 61.5002L400.301 136.5L400.56 211.5H410.56H420.56V135.5V59.5002L410.793 59.2142L401.025 58.9272L400.534 60.2142ZM454.56 62.9292L451.56 63.6532L449.06 64.9452L446.56 66.2362L442.81 69.8212L439.06 73.4062V74.1132V74.8202L442.271 80.4102L445.481 86.0002H446.876H448.271L451.242 83.5002L454.213 81.0002H457.702H461.191L463.103 82.0232L465.014 83.0462L466.101 85.0772L467.189 87.1092L468.145 93.0462L469.101 98.9832L468.055 105.742L467.008 112.5L463.916 122L460.823 131.5L455.025 145.068L449.227 158.637L447.241 164.686L445.255 170.735L443.464 178.618L441.672 186.5L441.616 198L441.56 209.5H463.56H485.56V201.5V193.5L471.333 193.223L457.106 192.945L457.661 188.223L458.215 183.5L460.219 176.5L462.222 169.5L469.283 152.5L476.343 135.5L479.618 125.921L482.892 116.343L484.107 110.167L485.322 103.992L484.831 93.7462L484.34 83.5002L481.852 77.9682L479.363 72.4372L474.703 68.3352L470.043 64.2332L465.609 63.1172L461.174 62.0002L459.367 62.1022L457.56 62.2052L454.56 62.9292ZM567.969 63.5052L563.378 64.9682L558.719 69.0692L554.06 73.1702V74.0052V74.8402L557.31 80.4012L560.56 85.9612L561.916 85.9802L563.271 86.0002L566.242 83.5002L569.213 81.0002H573.564H577.915L579.984 83.6312L582.053 86.2612L583.174 90.3812L584.296 94.5002L583.724 102.05L583.153 109.6L579.724 120.05L576.295 130.5L570.772 143.602L565.249 156.705L562.248 166.102L559.248 175.5L557.594 185.5L555.94 195.5L556.25 202.5L556.56 209.5L578.851 209.769L601.142 210.038L600.851 201.769L600.56 193.5L586.675 193.221L572.79 192.942L573.44 186.6L574.089 180.257L577.188 170.935L580.287 161.612L583.77 154.056L587.254 146.5L591.609 135.33L595.964 124.16L597.622 117.83L599.281 111.5L600.093 105.094L600.905 98.6882L600.045 90.3512L599.184 82.0132L595.994 76.0282L592.804 70.0422L589.682 67.6772L586.56 65.3122L584.483 64.2132L582.406 63.1152L577.483 62.5782L572.56 62.0422L567.969 63.5052ZM500.176 64.3602L499.047 65.7212L499.303 137.61L499.56 209.5H507.06H514.56L515.06 177L515.56 144.5L516.361 149L517.162 153.5L521.065 167L524.968 180.5L528.376 189.5L531.784 198.5L533.96 204.159L536.136 209.818L537.457 210.914L538.778 212.011L545.919 208.856L553.06 205.702V204.051V202.4L552.19 201.45L551.321 200.5L547.056 190L542.791 179.5L540.857 174L538.923 168.5L535.428 157.5L531.934 146.5L529.057 134.11L526.18 121.719L531.014 111.11L535.848 100.5L542.454 86.0542L549.06 71.6072V70.5342V69.4622L543.018 66.1402L536.976 62.8182L535.665 63.3212L534.354 63.8252L530.241 73.6622L526.129 83.5002L520.629 97.0002L515.13 110.5L515.095 87.3572L515.06 64.2142L513.478 63.6072L511.896 63.0002H506.601H501.305L500.176 64.3602ZM615.704 64.3292L611.847 65.4052L612.526 71.4032L613.205 77.4022L614.161 79.1892L615.118 80.9762L617.339 81.4342L619.56 81.8912L624.093 82.4742L628.625 83.0572L631.794 84.9842L634.963 86.9122L636.569 90.0172L638.175 93.1232L638.24 98.8112L638.305 104.5L637.169 108.656L636.034 112.812L631.981 118.88L627.929 124.949L619.891 132.416L611.853 139.883L616.633 146.192L621.413 152.5L621.679 152.859L621.945 153.218L624.836 151.16L627.727 149.101L631.422 152.147L635.118 155.193L637.222 159.317L639.326 163.441L639.823 169.636L640.32 175.831L638.094 180.43L635.868 185.028L631.633 187.51L627.398 189.992L622.479 190.634L617.56 191.276L616.31 192.261L615.06 193.245V201.061V208.877L619.737 209.579L624.415 210.28L630.876 209.09L637.337 207.899L641.337 205.859L645.337 203.818L649.981 199.159L654.624 194.5L656.982 189.5L659.34 184.5L660.401 177.237L661.462 169.975L660.336 163.4L659.21 156.826L656.52 151.328L653.83 145.83L648.549 140.721L643.268 135.612L647.034 131.056L650.801 126.5L653.345 122L655.889 117.5L657.475 112.068L659.06 106.637V99.5002V92.3632L657.492 86.9322L655.925 81.5002L652.439 76.3492L648.952 71.1972L645.256 68.6402L641.56 66.0822L637.184 64.5412L632.809 63.0002L626.184 63.1262L619.56 63.2532L615.704 64.3292ZM80.276 238.75L80.56 249.5L89.755 249.787L98.95 250.074L100.044 248.03L101.138 245.986L100.849 237.243L100.56 228.5L98.35 228.186L96.14 227.871L95.85 236.686L95.56 245.5H90.06H84.56L84.271 236.75L83.982 228H81.987H79.992L80.276 238.75ZM106.234 230.314L104.06 232.629V241.314V250H107.022H109.984L109.772 241.999L109.56 233.999H115.31L121.06 234V242V250H123.56H126.06V241.174V232.349L123.746 230.174L121.431 228H114.92H108.409L106.234 230.314ZM129.06 237.279V246.69L130.889 248.345L132.717 250H141.889H151.06V249.082V248.164L151.573 246.832L152.086 245.5H143.459H134.832L134.696 237L134.56 228.5L131.81 228.184L129.06 227.867V237.279ZM156.234 230.314L154.06 232.629V239.659V246.69L155.889 248.345L157.717 250H166.782H175.846L176.453 248.418L177.06 246.836V246.418V246H168.56H160.06V244V242H168.56H177.06V239.5V237H168.56H160.06V235.5V234H168.56H177.06L177.028 232.75L176.996 231.5L175.668 229.75L174.34 228H166.374H158.409L156.234 230.314ZM184.31 230.675L180.06 233.15V241.575V250H182.56H185.06V247V244H190.887H196.714L196.273 247L195.833 250H198.947H202.06L202.058 241.75L202.055 233.5L196.792 230.75L191.528 228L190.044 228.1L188.56 228.2L184.31 230.675ZM206.133 230.635L204.06 233.27V235.461V237.651L206.374 239.826L208.689 242H214.874H221.06V244V246H212.453H203.846L204.453 247.582L205.06 249.164V249.582V250H214.405H223.75L225.405 248.171L227.06 246.343V243.846V241.349L224.746 239.174L222.431 237H216.246H210.06V235.5V234H218.56H227.06L227.028 232.75L226.996 231.5L225.668 229.75L224.34 228H216.272H208.205L206.133 230.635ZM230.06 239V250H232.56H235.06V246.589V243.178L240.943 242.839L246.826 242.5L246.463 246.25L246.099 250H249.114H252.128L251.844 239.262L251.56 228.524L249.68 228.163L247.8 227.803L246.989 229.115L246.178 230.427L246.437 233.714L246.696 237H240.878H235.06V232.5V228H232.56H230.06V239ZM268.563 229.991L267.931 231.982L268.554 232.991L269.178 234H273.119H277.06V242V250H279.56H282.06V242V234H286.56H291.06V231V228H280.127H269.195L268.563 229.991ZM294.06 238.93V250H296.56H299.06L299.058 246.25L299.056 242.5L305.174 242.845L311.291 243.189L310.738 246.595L310.186 250H313.157H316.128L315.844 239.25L315.56 228.5L313.31 228.18L311.06 227.861V232.43V237H305.117H299.175L298.867 232.75L298.56 228.5L296.31 228.18L294.06 227.861V238.93ZM320.292 230.75L318.387 233.5L318.311 239.5L318.235 245.5L319.694 247.786L321.153 250.071L330.845 249.786L340.537 249.5L340.872 247.75L341.207 246H332.633H324.06V244V242H332.56H341.06V239.5V237H332.56H324.06V235.5V234H332.56H341.06V232.934V231.869L340.025 229.934L338.99 228H330.593H322.196L320.292 230.75ZM357.435 229.466L356.846 231L357.422 232.5L357.997 234H362.029H366.06V242V250H368.56H371.06V242.057V234.115L375.31 233.807L379.56 233.5V231V228.5L368.792 228.216L358.023 227.932L357.435 229.466ZM387.81 230.566L383.06 233.038V241.519V250H385.56H388.06V247V244H393.887H399.714L399.273 247L398.833 250H401.987H405.141L404.85 241.751L404.56 233.501L399.56 230.774L394.56 228.047L393.56 228.07L392.56 228.093L387.81 230.566ZM408.06 237.811V247.755L409.459 248.916L410.859 250.078L420.209 249.789L429.56 249.5L429.849 247.5L430.138 245.5L421.822 245.817L413.505 246.134L413.533 237.317L413.56 228.5L410.81 228.184L408.06 227.867V237.811ZM434.81 230.47L433.06 232.876V240.238V247.6L434.26 248.8L435.46 250H444.653H453.846L454.453 248.418L455.06 246.836L455.062 246.168L455.065 245.5L446.562 245.823L438.06 246.147V244.073V242H446.56H455.06V239.5V237H446.56H438.06V235.5V234H446.56H455.06L455.028 232.75L454.996 231.5L453.668 229.75L452.34 228L444.45 228.031L436.56 228.063L434.81 230.47ZM460.234 230.314L458.06 232.629V241.314V250H460.56H463.06V242V234H468.817H474.575L474.212 242L473.848 250H476.954H480.06V241.174V232.349L477.746 230.174L475.431 228H468.92H462.409L460.234 230.314ZM483.727 228.667L483.06 229.333V231.667V234L487.31 233.998L491.56 233.995L491.234 241.998L490.908 250H493.984H497.06V242V234H501.06H505.06V231V228H494.727H484.393L483.727 228.667ZM522.06 237.8V247.6L523.26 248.8L524.46 250H534.105H543.75L545.446 248.126L547.142 246.252L546.851 237.376L546.56 228.5H544.06H541.56L541.271 237.25L540.982 246H539.06H537.138L536.849 237.25L536.56 228.5L533.737 228.177L530.914 227.853L531.237 236.929L531.56 246.005L529.31 246.002L527.06 246V237V228H524.56H522.06V237.8ZM549.769 228.624L549.06 229.333V239.667V250H552.094H555.128L554.844 239.25L554.56 228.5L552.519 228.208L550.478 227.916L549.769 228.624ZM558.06 230.966V234H562.06H566.06V242V250H569.06H572.06V242V234H576.126H580.193L579.876 231.25L579.56 228.5L568.81 228.216L558.06 227.932V230.966ZM583.769 228.624L583.06 229.333V239.667V250H586.169H589.279L588.879 246.578L588.48 243.156L594.272 242.828L600.064 242.5L600.062 246.25L600.06 250H602.56H605.06V239V228H602.56H600.06V232.5V237L594.31 237.001L588.56 237.003V232.751V228.5L586.519 228.208L584.478 227.916L583.769 228.624ZM608.769 228.624L608.06 229.333V239.667V250H611.094H614.128L613.844 239.25L613.56 228.5L611.519 228.208L609.478 227.916L608.769 228.624ZM619.099 230.189L617.06 232.377V241.189V250H619.56H622.06V241.95V233.9L627.725 234.2L633.39 234.5L633.16 242.25L632.929 250H635.495H638.06V241V232L636.06 230L634.06 228H627.599H621.138L619.099 230.189ZM194.11 235.526L197.06 237.051V237.776L197.061 238.5H191.063H185.066L185.063 237.403L185.06 236.306L187.31 235.22L189.56 234.135L190.36 234.068L191.159 234L194.11 235.526ZM397.11 235.526L400.06 237.051V237.776L400.061 238.5H394.063H388.066L388.063 237.403L388.06 236.306L390.31 235.22L392.56 234.135L393.36 234.068L394.159 234L397.11 235.526Z" fill="url(#paint0_linear_39_78)"/>
</g>
<path id="Layer 3" fill-rule="evenodd" clip-rule="evenodd" d="M27.4 3.83424L22.56 7.66924L16.853 13.8452L11.147 20.0202L7.085 28.2602L3.024 36.5002L1.542 44.3382L0.0599995 52.1762V57.9042V63.6332L1.129 69.5662L2.197 75.5002L5.057 87.0002L7.916 98.5002L12.979 114.37L18.042 130.24L21.664 144.712L25.285 159.184L24.881 168.842L24.476 178.5L21.883 184.12L19.29 189.74L15.537 193.894L11.784 198.048L5.892 201.684L0 205.321L0.289999 205.911L0.578999 206.5L5.33 215.75L10.08 225H10.986H11.892L19.369 219.999L26.846 214.998L32.396 209.004L37.947 203.009L41.517 195.754L45.088 188.5L46.676 181L48.264 173.5L47.697 163L47.131 152.5L45.052 144L42.972 135.5L35.538 112L28.104 88.5002L25.383 77.5002L22.663 66.5002L22.611 56.9482L22.56 47.3962L26.483 39.4482L30.406 31.5002L38.295 23.5002L46.184 15.5002L45.171 14.0002L44.158 12.5002L40.359 6.26724L36.56 0.035244L34.4 0.0172443L32.24 0.000244141L27.4 3.83424ZM207.954 4.84824L201.55 9.69624L197.937 14.1062L194.324 18.5152L191.157 23.5072L187.99 28.5002L185.338 36.5002L182.686 44.5002L182.661 57.5002L182.635 70.5002L185.878 83.5002L189.122 96.5002L195.556 117.5L201.991 138.5L204.612 149.5L207.233 160.5L206.849 169.017L206.466 177.535L203.311 184.278L200.155 191.022L195.126 195.843L190.097 200.665L186.329 202.583L182.56 204.5L182.136 204.757L181.712 205.014L186.636 214.93L191.56 224.845L192.449 224.922L193.337 225L201.61 219.495L209.883 213.991L214.567 208.781L219.25 203.572L222.586 196.949L225.921 190.327L227.445 184.413L228.969 178.5L229.631 171.955L230.294 165.411L228.594 154.571L226.895 143.732L222.928 130.116L218.961 116.5L214.552 103L210.144 89.5002L207.374 79.0002L204.605 68.5002L204.583 57.4792L204.56 46.4582L207.872 39.7292L211.185 33.0012L219.333 24.3932L227.481 15.7852L225.111 11.6432L222.74 7.50024L220.388 3.75024L218.035 0.000244141H216.197H214.358L207.954 4.84824ZM67.26 8.20024L66.06 9.40024V110.181V210.962L68.31 211.526L70.56 212.09L79.06 211.795L87.56 211.5L87.82 164.75L88.08 118H88.993H89.907L92.894 120.514L95.881 123.027L97.614 127.764L99.347 132.5L100.247 166L101.146 199.5L101.686 205.783L102.226 212.066L112.893 211.783L123.56 211.5L123.855 194L124.15 176.5L123.151 155L122.153 133.5L120.105 125.586L118.058 117.672L115.5 113.308L112.943 108.944L111.066 107.772L109.189 106.6L112.581 102.845L115.973 99.0902L117.94 95.2352L119.907 91.3802L121.688 84.9402L123.469 78.5002L123.508 61.0002L123.547 43.5002L121.778 37.0002L120.009 30.5002L117.341 25.0002L114.673 19.5002L109.828 14.7772L104.983 10.0552L99.84 8.52724L94.697 7.00024H81.578H68.46L67.26 8.20024ZM247.178 8.35824L246.05 9.71724L246.305 110.608L246.56 211.5H257.06H267.56L267.819 156.75L268.077 102H278.069H288.06V156.481V210.962L290.31 211.526L292.56 212.09L301.06 211.795L309.56 211.5L309.815 110.608L310.07 9.71724L308.942 8.35824L307.815 7.00024H299.138H290.46L289.26 8.20024L288.06 9.40024V43.7002V78.0002H278.06H268.06V43.7002V9.40024L266.86 8.20024L265.66 7.00024H256.982H248.305L247.178 8.35824ZM325.164 9.25024L324.318 11.5002L322.549 19.7292L320.78 27.9582L322.042 29.4792L323.305 31.0002H333.682H344.06V120.3V209.6L345.26 210.8L346.46 212H355.638H364.815L365.948 210.635L367.081 209.269L366.821 120.135L366.56 31.0002H377.243H387.925L388.462 29.2502L388.998 27.5002L390.531 18.6052L392.065 9.71124L390.94 8.35524L389.815 7.00024H357.913H326.01L325.164 9.25024ZM149.56 14.8282L146.56 16.7342L144.166 19.3342L141.773 21.9352L141.29 26.9562L140.808 31.9772L142.064 35.0092L143.319 38.0402L146.219 40.4802L149.119 42.9202L152.492 43.5532L155.866 44.1862L159.247 42.5822L162.628 40.9772L165.344 36.7882L168.06 32.6002V28.4482V24.2962L165.81 20.9902L163.56 17.6842L161.06 15.8532L158.56 14.0232L155.56 13.4732L152.56 12.9222L149.56 14.8282ZM407.061 14.1022L404.561 15.1202L402.215 17.3102L399.87 19.5002L398.465 22.2002L397.06 24.9012V28.4822V32.0642L398.439 35.3642L399.818 38.6642L402.54 40.8062L405.263 42.9472L408.643 43.5812L412.022 44.2162L415.752 42.2802L419.481 40.3452L421.849 35.9232L424.217 31.5002L423.748 27.1362L423.28 22.7722L421.358 20.1982L419.436 17.6242L416.998 15.8572L414.56 14.0902L412.06 13.5872L409.56 13.0842L407.061 14.1022ZM95.536 32.3852L97.921 34.7702L99.234 39.1352L100.547 43.5002L100.552 63.0002L100.558 82.5002L98.754 87.6732L96.95 92.8462L95.66 93.9172L94.369 94.9882L91.215 95.6192L88.06 96.2502V63.1252V30.0002H90.605H93.151L95.536 32.3852ZM144.534 60.2142L144.043 61.5002L144.301 136.5L144.56 211.5H154.56H164.56V135.5V59.5002L154.793 59.2142L145.025 58.9272L144.534 60.2142ZM400.534 60.2142L400.043 61.5002L400.301 136.5L400.56 211.5H410.56H420.56V135.5V59.5002L410.793 59.2142L401.025 58.9272L400.534 60.2142ZM80.276 238.75L80.56 249.5L89.755 249.787L98.95 250.074L100.044 248.03L101.138 245.986L100.849 237.243L100.56 228.5L98.35 228.186L96.14 227.871L95.85 236.686L95.56 245.5H90.06H84.56L84.271 236.75L83.982 228H81.987H79.992L80.276 238.75ZM106.234 230.314L104.06 232.629V241.314V250H107.022H109.984L109.772 241.999L109.56 233.999H115.31L121.06 234V242V250H123.56H126.06V241.174V232.349L123.746 230.174L121.431 228H114.92H108.409L106.234 230.314ZM129.06 237.279V246.69L130.889 248.345L132.717 250H141.889H151.06V249.082V248.164L151.573 246.832L152.086 245.5H143.459H134.832L134.696 237L134.56 228.5L131.81 228.184L129.06 227.867V237.279ZM156.234 230.314L154.06 232.629V239.659V246.69L155.889 248.345L157.717 250H166.782H175.846L176.453 248.418L177.06 246.836V246.418V246H168.56H160.06V244V242H168.56H177.06V239.5V237H168.56H160.06V235.5V234H168.56H177.06L177.028 232.75L176.996 231.5L175.668 229.75L174.34 228H166.374H158.409L156.234 230.314ZM184.31 230.675L180.06 233.15V241.575V250H182.56H185.06V247V244H190.887H196.714L196.273 247L195.833 250H198.947H202.06L202.058 241.75L202.055 233.5L196.792 230.75L191.528 228L190.044 228.1L188.56 228.2L184.31 230.675ZM206.133 230.635L204.06 233.27V235.461V237.651L206.374 239.826L208.689 242H214.874H221.06V244V246H212.453H203.846L204.453 247.582L205.06 249.164V249.582V250H214.405H223.75L225.405 248.171L227.06 246.343V243.846V241.349L224.746 239.174L222.431 237H216.246H210.06V235.5V234H218.56H227.06L227.028 232.75L226.996 231.5L225.668 229.75L224.34 228H216.272H208.205L206.133 230.635ZM230.06 239V250H232.56H235.06V246.589V243.178L240.943 242.839L246.826 242.5L246.463 246.25L246.099 250H249.114H252.128L251.844 239.262L251.56 228.524L249.68 228.163L247.8 227.803L246.989 229.115L246.178 230.427L246.437 233.714L246.696 237H240.878H235.06V232.5V228H232.56H230.06V239ZM268.563 229.991L267.931 231.982L268.554 232.991L269.178 234H273.119H277.06V242V250H279.56H282.06V242V234H286.56H291.06V231V228H280.127H269.195L268.563 229.991ZM294.06 238.93V250H296.56H299.06L299.058 246.25L299.056 242.5L305.174 242.845L311.291 243.189L310.738 246.595L310.186 250H313.157H316.128L315.844 239.25L315.56 228.5L313.31 228.18L311.06 227.861V232.43V237H305.117H299.175L298.867 232.75L298.56 228.5L296.31 228.18L294.06 227.861V238.93ZM320.292 230.75L318.387 233.5L318.311 239.5L318.235 245.5L319.694 247.786L321.153 250.071L330.845 249.786L340.537 249.5L340.872 247.75L341.207 246H332.633H324.06V244V242H332.56H341.06V239.5V237H332.56H324.06V235.5V234H332.56H341.06V232.934V231.869L340.025 229.934L338.99 228H330.593H322.196L320.292 230.75ZM357.435 229.466L356.846 231L357.422 232.5L357.997 234H362.029H366.06V242V250H368.56H371.06V242.057V234.115L375.31 233.807L379.56 233.5V231V228.5L368.792 228.216L358.023 227.932L357.435 229.466ZM387.81 230.566L383.06 233.038V241.519V250H385.56H388.06V247V244H393.887H399.714L399.273 247L398.833 250H401.987H405.141L404.85 241.751L404.56 233.501L399.56 230.774L394.56 228.047L393.56 228.07L392.56 228.093L387.81 230.566ZM408.06 237.811V247.755L409.459 248.916L410.859 250.078L420.209 249.789L429.56 249.5L429.849 247.5L430.138 245.5L421.822 245.817L413.505 246.134L413.533 237.317L413.56 228.5L410.81 228.184L408.06 227.867V237.811ZM434.81 230.47L433.06 232.876V240.238V247.6L434.26 248.8L435.46 250H444.653H453.846L454.453 248.418L455.06 246.836L455.062 246.168L455.065 245.5L446.562 245.823L438.06 246.147V244.073V242H446.56H455.06V239.5V237H446.56H438.06V235.5V234H446.56H455.06L455.028 232.75L454.996 231.5L453.668 229.75L452.34 228L444.45 228.031L436.56 228.063L434.81 230.47ZM460.234 230.314L458.06 232.629V241.314V250H460.56H463.06V242V234H468.817H474.575L474.212 242L473.848 250H476.954H480.06V241.174V232.349L477.746 230.174L475.431 228H468.92H462.409L460.234 230.314ZM483.727 228.667L483.06 229.333V231.667V234L487.31 233.998L491.56 233.995L491.234 241.998L490.908 250H493.984H497.06V242V234H501.06H505.06V231V228H494.727H484.393L483.727 228.667ZM522.06 237.8V247.6L523.26 248.8L524.46 250H534.105H543.75L545.446 248.126L547.142 246.252L546.851 237.376L546.56 228.5H544.06H541.56L541.271 237.25L540.982 246H539.06H537.138L536.849 237.25L536.56 228.5L533.737 228.177L530.914 227.853L531.237 236.929L531.56 246.005L529.31 246.002L527.06 246V237V228H524.56H522.06V237.8ZM549.769 228.624L549.06 229.333V239.667V250H552.094H555.128L554.844 239.25L554.56 228.5L552.519 228.208L550.478 227.916L549.769 228.624ZM558.06 230.966V234H562.06H566.06V242V250H569.06H572.06V242V234H576.126H580.193L579.876 231.25L579.56 228.5L568.81 228.216L558.06 227.932V230.966ZM583.769 228.624L583.06 229.333V239.667V250H586.169H589.279L588.879 246.578L588.48 243.156L594.272 242.828L600.064 242.5L600.062 246.25L600.06 250H602.56H605.06V239V228H602.56H600.06V232.5V237L594.31 237.001L588.56 237.003V232.751V228.5L586.519 228.208L584.478 227.916L583.769 228.624ZM608.769 228.624L608.06 229.333V239.667V250H611.094H614.128L613.844 239.25L613.56 228.5L611.519 228.208L609.478 227.916L608.769 228.624ZM619.099 230.189L617.06 232.377V241.189V250H619.56H622.06V241.95V233.9L627.725 234.2L633.39 234.5L633.16 242.25L632.929 250H635.495H638.06V241V232L636.06 230L634.06 228H627.599H621.138L619.099 230.189ZM194.11 235.526L197.06 237.051V237.776L197.061 238.5H191.063H185.066L185.063 237.403L185.06 236.306L187.31 235.22L189.56 234.135L190.36 234.068L191.159 234L194.11 235.526ZM397.11 235.526L400.06 237.051V237.776L400.061 238.5H394.063H388.066L388.063 237.403L388.06 236.306L390.31 235.22L392.56 234.135L393.36 234.068L394.159 234L397.11 235.526Z" fill="url(#paint1_linear_39_78)" fill-opacity="0.5"/>
<path id="Layer 4" fill-rule="evenodd" clip-rule="evenodd" d="M27.4 3.83424L22.56 7.66924L16.853 13.8452L11.147 20.0202L7.085 28.2602L3.024 36.5002L1.542 44.3382L0.0599995 52.1762V57.9042V63.6332L1.129 69.5662L2.197 75.5002L5.057 87.0002L7.916 98.5002L12.979 114.37L18.042 130.24L21.664 144.712L25.285 159.184L24.881 168.842L24.476 178.5L21.883 184.12L19.29 189.74L15.537 193.894L11.784 198.048L5.892 201.684L0 205.321L0.289999 205.911L0.578999 206.5L5.33 215.75L10.08 225H10.986H11.892L19.369 219.999L26.846 214.998L32.396 209.004L37.947 203.009L41.517 195.754L45.088 188.5L46.676 181L48.264 173.5L47.697 163L47.131 152.5L45.052 144L42.972 135.5L35.538 112L28.104 88.5002L25.383 77.5002L22.663 66.5002L22.611 56.9482L22.56 47.3962L26.483 39.4482L30.406 31.5002L38.295 23.5002L46.184 15.5002L45.171 14.0002L44.158 12.5002L40.359 6.26724L36.56 0.035244L34.4 0.0172443L32.24 0.000244141L27.4 3.83424ZM207.954 4.84824L201.55 9.69624L197.937 14.1062L194.324 18.5152L191.157 23.5072L187.99 28.5002L185.338 36.5002L182.686 44.5002L182.661 57.5002L182.635 70.5002L185.878 83.5002L189.122 96.5002L195.556 117.5L201.991 138.5L204.612 149.5L207.233 160.5L206.849 169.017L206.466 177.535L203.311 184.278L200.155 191.022L195.126 195.843L190.097 200.665L186.329 202.583L182.56 204.5L182.136 204.757L181.712 205.014L186.636 214.93L191.56 224.845L192.449 224.922L193.337 225L201.61 219.495L209.883 213.991L214.567 208.781L219.25 203.572L222.586 196.949L225.921 190.327L227.445 184.413L228.969 178.5L229.631 171.955L230.294 165.411L228.594 154.571L226.895 143.732L222.928 130.116L218.961 116.5L214.552 103L210.144 89.5002L207.374 79.0002L204.605 68.5002L204.583 57.4792L204.56 46.4582L207.872 39.7292L211.185 33.0012L219.333 24.3932L227.481 15.7852L225.111 11.6432L222.74 7.50024L220.388 3.75024L218.035 0.000244141H216.197H214.358L207.954 4.84824ZM67.26 8.20024L66.06 9.40024V110.181V210.962L68.31 211.526L70.56 212.09L79.06 211.795L87.56 211.5L87.82 164.75L88.08 118H88.993H89.907L92.894 120.514L95.881 123.027L97.614 127.764L99.347 132.5L100.247 166L101.146 199.5L101.686 205.783L102.226 212.066L112.893 211.783L123.56 211.5L123.855 194L124.15 176.5L123.151 155L122.153 133.5L120.105 125.586L118.058 117.672L115.5 113.308L112.943 108.944L111.066 107.772L109.189 106.6L112.581 102.845L115.973 99.0902L117.94 95.2352L119.907 91.3802L121.688 84.9402L123.469 78.5002L123.508 61.0002L123.547 43.5002L121.778 37.0002L120.009 30.5002L117.341 25.0002L114.673 19.5002L109.828 14.7772L104.983 10.0552L99.84 8.52724L94.697 7.00024H81.578H68.46L67.26 8.20024ZM247.178 8.35824L246.05 9.71724L246.305 110.608L246.56 211.5H257.06H267.56L267.819 156.75L268.077 102H278.069H288.06V156.481V210.962L290.31 211.526L292.56 212.09L301.06 211.795L309.56 211.5L309.815 110.608L310.07 9.71724L308.942 8.35824L307.815 7.00024H299.138H290.46L289.26 8.20024L288.06 9.40024V43.7002V78.0002H278.06H268.06V43.7002V9.40024L266.86 8.20024L265.66 7.00024H256.982H248.305L247.178 8.35824ZM325.164 9.25024L324.318 11.5002L322.549 19.7292L320.78 27.9582L322.042 29.4792L323.305 31.0002H333.682H344.06V120.3V209.6L345.26 210.8L346.46 212H355.638H364.815L365.948 210.635L367.081 209.269L366.821 120.135L366.56 31.0002H377.243H387.925L388.462 29.2502L388.998 27.5002L390.531 18.6052L392.065 9.71124L390.94 8.35524L389.815 7.00024H357.913H326.01L325.164 9.25024ZM149.56 14.8282L146.56 16.7342L144.166 19.3342L141.773 21.9352L141.29 26.9562L140.808 31.9772L142.064 35.0092L143.319 38.0402L146.219 40.4802L149.119 42.9202L152.492 43.5532L155.866 44.1862L159.247 42.5822L162.628 40.9772L165.344 36.7882L168.06 32.6002V28.4482V24.2962L165.81 20.9902L163.56 17.6842L161.06 15.8532L158.56 14.0232L155.56 13.4732L152.56 12.9222L149.56 14.8282ZM407.061 14.1022L404.561 15.1202L402.215 17.3102L399.87 19.5002L398.465 22.2002L397.06 24.9012V28.4822V32.0642L398.439 35.3642L399.818 38.6642L402.54 40.8062L405.263 42.9472L408.643 43.5812L412.022 44.2162L415.752 42.2802L419.481 40.3452L421.849 35.9232L424.217 31.5002L423.748 27.1362L423.28 22.7722L421.358 20.1982L419.436 17.6242L416.998 15.8572L414.56 14.0902L412.06 13.5872L409.56 13.0842L407.061 14.1022ZM95.536 32.3852L97.921 34.7702L99.234 39.1352L100.547 43.5002L100.552 63.0002L100.558 82.5002L98.754 87.6732L96.95 92.8462L95.66 93.9172L94.369 94.9882L91.215 95.6192L88.06 96.2502V63.1252V30.0002H90.605H93.151L95.536 32.3852ZM144.534 60.2142L144.043 61.5002L144.301 136.5L144.56 211.5H154.56H164.56V135.5V59.5002L154.793 59.2142L145.025 58.9272L144.534 60.2142ZM400.534 60.2142L400.043 61.5002L400.301 136.5L400.56 211.5H410.56H420.56V135.5V59.5002L410.793 59.2142L401.025 58.9272L400.534 60.2142ZM80.276 238.75L80.56 249.5L89.755 249.787L98.95 250.074L100.044 248.03L101.138 245.986L100.849 237.243L100.56 228.5L98.35 228.186L96.14 227.871L95.85 236.686L95.56 245.5H90.06H84.56L84.271 236.75L83.982 228H81.987H79.992L80.276 238.75ZM106.234 230.314L104.06 232.629V241.314V250H107.022H109.984L109.772 241.999L109.56 233.999H115.31L121.06 234V242V250H123.56H126.06V241.174V232.349L123.746 230.174L121.431 228H114.92H108.409L106.234 230.314ZM129.06 237.279V246.69L130.889 248.345L132.717 250H141.889H151.06V249.082V248.164L151.573 246.832L152.086 245.5H143.459H134.832L134.696 237L134.56 228.5L131.81 228.184L129.06 227.867V237.279ZM156.234 230.314L154.06 232.629V239.659V246.69L155.889 248.345L157.717 250H166.782H175.846L176.453 248.418L177.06 246.836V246.418V246H168.56H160.06V244V242H168.56H177.06V239.5V237H168.56H160.06V235.5V234H168.56H177.06L177.028 232.75L176.996 231.5L175.668 229.75L174.34 228H166.374H158.409L156.234 230.314ZM184.31 230.77L180.06 233.15V241.575V250H182.56H185.06V247V244H190.887H196.714L196.273 247L195.833 250H198.947H202.06V241.699V233.399L197.31 231.026L192.56 228.654L190.56 228.522L188.56 228.39L184.31 230.77ZM206.133 230.635L204.06 233.27V235.461V237.651L206.374 239.826L208.689 242H214.874H221.06V244V246H212.453H203.846L204.453 247.582L205.06 249.164V249.582V250H214.405H223.75L225.405 248.171L227.06 246.343V243.846V241.349L224.746 239.174L222.431 237H216.246H210.06V235.5V234H218.56H227.06L227.028 232.75L226.996 231.5L225.668 229.75L224.34 228H216.272H208.205L206.133 230.635ZM230.06 239V250H232.56H235.06V246.589V243.178L240.943 242.839L246.826 242.5L246.463 246.25L246.099 250H249.114H252.128L251.844 239.262L251.56 228.524L249.68 228.163L247.8 227.803L246.989 229.115L246.178 230.427L246.437 233.714L246.696 237H240.878H235.06V232.5V228H232.56H230.06V239ZM268.563 229.991L267.931 231.982L268.554 232.991L269.178 234H273.119H277.06V242V250H279.56H282.06V242V234H286.56H291.06V231V228H280.127H269.195L268.563 229.991ZM294.06 238.93V250H296.56H299.06L299.058 246.25L299.056 242.5L305.174 242.845L311.291 243.189L310.738 246.595L310.186 250H313.157H316.128L315.844 239.25L315.56 228.5L313.31 228.18L311.06 227.861V232.43V237H305.117H299.175L298.867 232.75L298.56 228.5L296.31 228.18L294.06 227.861V238.93ZM320.292 230.75L318.387 233.5L318.311 239.5L318.235 245.5L319.694 247.786L321.153 250.071L330.845 249.786L340.537 249.5L340.872 247.75L341.207 246H332.633H324.06V244V242H332.56H341.06V239.5V237H332.56H324.06V235.5V234H332.56H341.06V232.934V231.869L340.025 229.934L338.99 228H330.593H322.196L320.292 230.75ZM357.435 229.466L356.846 231L357.422 232.5L357.997 234H362.029H366.06V242V250H368.56H371.06V242.057V234.115L375.31 233.807L379.56 233.5V231V228.5L368.792 228.216L358.023 227.932L357.435 229.466ZM387.81 230.566L383.06 233.038V241.519V250H385.56H388.06V247V244H393.887H399.714L399.273 247L398.833 250H401.987H405.141L404.85 241.751L404.56 233.501L399.56 230.774L394.56 228.047L393.56 228.07L392.56 228.093L387.81 230.566ZM408.06 237.811V247.755L409.459 248.916L410.859 250.078L420.209 249.789L429.56 249.5L429.849 247.5L430.138 245.5L421.822 245.817L413.505 246.134L413.533 237.317L413.56 228.5L410.81 228.184L408.06 227.867V237.811ZM434.81 230.47L433.06 232.876V240.238V247.6L434.26 248.8L435.46 250H444.653H453.846L454.453 248.418L455.06 246.836L455.062 246.168L455.065 245.5L446.562 245.823L438.06 246.147V244.073V242H446.56H455.06V239.5V237H446.56H438.06V235.5V234H446.56H455.06L455.028 232.75L454.996 231.5L453.668 229.75L452.34 228L444.45 228.031L436.56 228.063L434.81 230.47ZM460.234 230.314L458.06 232.629V241.314V250H460.56H463.06V242V234H468.817H474.575L474.212 242L473.848 250H476.954H480.06V241.174V232.349L477.746 230.174L475.431 228H468.92H462.409L460.234 230.314ZM483.727 228.667L483.06 229.333V231.667V234L487.31 233.998L491.56 233.995L491.234 241.998L490.908 250H493.984H497.06V242V234H501.06H505.06V231V228H494.727H484.393L483.727 228.667ZM522.06 237.8V247.6L523.26 248.8L524.46 250H534.105H543.75L545.446 248.126L547.142 246.252L546.851 237.376L546.56 228.5H544.06H541.56L541.271 237.25L540.982 246H539.06H537.138L536.849 237.25L536.56 228.5L533.737 228.177L530.914 227.853L531.237 236.929L531.56 246.005L529.31 246.002L527.06 246V237V228H524.56H522.06V237.8ZM549.769 228.624L549.06 229.333V239.667V250H552.094H555.128L554.844 239.25L554.56 228.5L552.519 228.208L550.478 227.916L549.769 228.624ZM558.06 230.966V234H562.06H566.06V242V250H569.06H572.06V242V234H576.126H580.193L579.876 231.25L579.56 228.5L568.81 228.216L558.06 227.932V230.966ZM583.769 228.624L583.06 229.333V239.667V250H586.169H589.279L588.879 246.578L588.48 243.156L594.272 242.828L600.064 242.5L600.062 246.25L600.06 250H602.56H605.06V239V228H602.56H600.06V232.5V237L594.31 237.001L588.56 237.003V232.751V228.5L586.519 228.208L584.478 227.916L583.769 228.624ZM608.769 228.624L608.06 229.333V239.667V250H611.094H614.128L613.844 239.25L613.56 228.5L611.519 228.208L609.478 227.916L608.769 228.624ZM619.099 230.189L617.06 232.377V241.189V250H619.56H622.06V241.95V233.9L627.725 234.2L633.39 234.5L633.16 242.25L632.929 250H635.495H638.06V241V232L636.06 230L634.06 228H627.599H621.138L619.099 230.189ZM194.11 235.526L197.06 237.051V237.776L197.061 238.5H191.063H185.066L185.063 237.403L185.06 236.306L187.31 235.22L189.56 234.135L190.36 234.068L191.159 234L194.11 235.526ZM397.11 235.526L400.06 237.051V237.776L400.061 238.5H394.063H388.066L388.063 237.403L388.06 236.306L390.31 235.22L392.56 234.135L393.36 234.068L394.159 234L397.11 235.526Z" fill="#00FFFF"/>
<g id="Layer 5" filter="url(#filter1_i_39_78)">
<path fill-rule="evenodd" clip-rule="evenodd" d="M27.4 3.83424L22.56 7.66924L16.853 13.8452L11.147 20.0202L7.085 28.2602L3.024 36.5002L1.542 44.3382L0.0599995 52.1762V57.9042V63.6332L1.129 69.5662L2.197 75.5002L5.057 87.0002L7.916 98.5002L12.979 114.37L18.042 130.24L21.664 144.712L25.285 159.184L24.881 168.842L24.476 178.5L21.883 184.12L19.29 189.74L15.537 193.894L11.784 198.048L5.892 201.684L0 205.321L0.289999 205.911L0.578999 206.5L5.33 215.75L10.08 225H10.986H11.892L19.369 219.999L26.846 214.998L32.396 209.004L37.947 203.009L41.517 195.754L45.088 188.5L46.676 181L48.264 173.5L47.697 163L47.131 152.5L45.052 144L42.972 135.5L35.538 112L28.104 88.5002L25.383 77.5002L22.663 66.5002L22.611 56.9482L22.56 47.3962L26.483 39.4482L30.406 31.5002L38.295 23.5002L46.184 15.5002L45.171 14.0002L44.158 12.5002L40.359 6.26724L36.56 0.035244L34.4 0.0172443L32.24 0.000244141L27.4 3.83424ZM207.954 4.84824L201.55 9.69624L197.937 14.1062L194.324 18.5152L191.157 23.5072L187.99 28.5002L185.338 36.5002L182.686 44.5002L182.661 57.5002L182.635 70.5002L185.878 83.5002L189.122 96.5002L195.556 117.5L201.991 138.5L204.612 149.5L207.233 160.5L206.849 169.017L206.466 177.535L203.311 184.278L200.155 191.022L195.126 195.843L190.097 200.665L186.329 202.583L182.56 204.5L182.136 204.757L181.712 205.014L186.636 214.93L191.56 224.845L192.449 224.922L193.337 225L201.61 219.495L209.883 213.991L214.567 208.781L219.25 203.572L222.586 196.949L225.921 190.327L227.445 184.413L228.969 178.5L229.631 171.955L230.294 165.411L228.594 154.571L226.895 143.732L222.928 130.116L218.961 116.5L214.552 103L210.144 89.5002L207.374 79.0002L204.605 68.5002L204.583 57.4792L204.56 46.4582L207.872 39.7292L211.185 33.0012L219.333 24.3932L227.481 15.7852L225.111 11.6432L222.74 7.50024L220.388 3.75024L218.035 0.000244141H216.197H214.358L207.954 4.84824ZM67.26 8.20024L66.06 9.40024V110.181V210.962L68.31 211.526L70.56 212.09L79.06 211.795L87.56 211.5L87.82 164.75L88.08 118H88.993H89.907L92.894 120.514L95.881 123.027L97.614 127.764L99.347 132.5L100.247 166L101.146 199.5L101.686 205.783L102.226 212.066L112.893 211.783L123.56 211.5L123.855 194L124.15 176.5L123.151 155L122.153 133.5L120.105 125.586L118.058 117.672L115.5 113.308L112.943 108.944L111.066 107.772L109.189 106.6L112.581 102.845L115.973 99.0902L117.94 95.2352L119.907 91.3802L121.688 84.9402L123.469 78.5002L123.508 61.0002L123.547 43.5002L121.778 37.0002L120.009 30.5002L117.341 25.0002L114.673 19.5002L109.828 14.7772L104.983 10.0552L99.84 8.52724L94.697 7.00024H81.578H68.46L67.26 8.20024ZM247.178 8.35824L246.05 9.71724L246.305 110.608L246.56 211.5H257.06H267.56L267.819 156.75L268.077 102H278.069H288.06V156.481V210.962L290.31 211.526L292.56 212.09L301.06 211.795L309.56 211.5L309.815 110.608L310.07 9.71724L308.942 8.35824L307.815 7.00024H299.138H290.46L289.26 8.20024L288.06 9.40024V43.7002V78.0002H278.06H268.06V43.7002V9.40024L266.86 8.20024L265.66 7.00024H256.982H248.305L247.178 8.35824ZM325.164 9.25024L324.318 11.5002L322.549 19.7292L320.78 27.9582L322.042 29.4792L323.305 31.0002H333.682H344.06V120.3V209.6L345.26 210.8L346.46 212H355.638H364.815L365.948 210.635L367.081 209.269L366.821 120.135L366.56 31.0002H377.243H387.925L388.462 29.2502L388.998 27.5002L390.531 18.6052L392.065 9.71124L390.94 8.35524L389.815 7.00024H357.913H326.01L325.164 9.25024ZM149.56 14.8282L146.56 16.7342L144.166 19.3342L141.773 21.9352L141.29 26.9562L140.808 31.9772L142.064 35.0092L143.319 38.0402L146.219 40.4802L149.119 42.9202L152.492 43.5532L155.866 44.1862L159.247 42.5822L162.628 40.9772L165.344 36.7882L168.06 32.6002V28.4482V24.2962L165.81 20.9902L163.56 17.6842L161.06 15.8532L158.56 14.0232L155.56 13.4732L152.56 12.9222L149.56 14.8282ZM407.061 14.1022L404.561 15.1202L402.215 17.3102L399.87 19.5002L398.465 22.2002L397.06 24.9012V28.4822V32.0642L398.439 35.3642L399.818 38.6642L402.54 40.8062L405.263 42.9472L408.643 43.5812L412.022 44.2162L415.752 42.2802L419.481 40.3452L421.849 35.9232L424.217 31.5002L423.748 27.1362L423.28 22.7722L421.358 20.1982L419.436 17.6242L416.998 15.8572L414.56 14.0902L412.06 13.5872L409.56 13.0842L407.061 14.1022ZM95.536 32.3852L97.921 34.7702L99.234 39.1352L100.547 43.5002L100.552 63.0002L100.558 82.5002L98.754 87.6732L96.95 92.8462L95.66 93.9172L94.369 94.9882L91.215 95.6192L88.06 96.2502V63.1252V30.0002H90.605H93.151L95.536 32.3852ZM144.534 60.2142L144.043 61.5002L144.301 136.5L144.56 211.5H154.56H164.56V135.5V59.5002L154.793 59.2142L145.025 58.9272L144.534 60.2142ZM400.534 60.2142L400.043 61.5002L400.301 136.5L400.56 211.5H410.56H420.56V135.5V59.5002L410.793 59.2142L401.025 58.9272L400.534 60.2142ZM80.276 238.75L80.56 249.5L89.755 249.787L98.95 250.074L100.044 248.03L101.138 245.986L100.849 237.243L100.56 228.5L98.35 228.186L96.14 227.871L95.85 236.686L95.56 245.5H90.06H84.56L84.271 236.75L83.982 228H81.987H79.992L80.276 238.75ZM106.234 230.314L104.06 232.629V241.314V250H107.022H109.984L109.772 241.999L109.56 233.999H115.31L121.06 234V242V250H123.56H126.06V241.174V232.349L123.746 230.174L121.431 228H114.92H108.409L106.234 230.314ZM129.06 237.279V246.69L130.889 248.345L132.717 250H141.889H151.06V249.082V248.164L151.573 246.832L152.086 245.5H143.459H134.832L134.696 237L134.56 228.5L131.81 228.184L129.06 227.867V237.279ZM156.234 230.314L154.06 232.629V239.659V246.69L155.889 248.345L157.717 250H166.782H175.846L176.453 248.418L177.06 246.836V246.418V246H168.56H160.06V244V242H168.56H177.06V239.5V237H168.56H160.06V235.5V234H168.56H177.06L177.028 232.75L176.996 231.5L175.668 229.75L174.34 228H166.374H158.409L156.234 230.314ZM184.31 230.77L180.06 233.15V241.575V250H182.56H185.06V247V244H190.887H196.714L196.273 247L195.833 250H198.947H202.06V241.699V233.399L197.31 231.026L192.56 228.654L190.56 228.522L188.56 228.39L184.31 230.77ZM206.133 230.635L204.06 233.27V235.461V237.651L206.374 239.826L208.689 242H214.874H221.06V244V246H212.453H203.846L204.453 247.582L205.06 249.164V249.582V250H214.405H223.75L225.405 248.171L227.06 246.343V243.846V241.349L224.746 239.174L222.431 237H216.246H210.06V235.5V234H218.56H227.06L227.028 232.75L226.996 231.5L225.668 229.75L224.34 228H216.272H208.205L206.133 230.635ZM230.06 239V250H232.56H235.06V246.589V243.178L240.943 242.839L246.826 242.5L246.463 246.25L246.099 250H249.114H252.128L251.844 239.262L251.56 228.524L249.68 228.163L247.8 227.803L246.989 229.115L246.178 230.427L246.437 233.714L246.696 237H240.878H235.06V232.5V228H232.56H230.06V239ZM268.563 229.991L267.931 231.982L268.554 232.991L269.178 234H273.119H277.06V242V250H279.56H282.06V242V234H286.56H291.06V231V228H280.127H269.195L268.563 229.991ZM294.06 238.93V250H296.56H299.06L299.058 246.25L299.056 242.5L305.174 242.845L311.291 243.189L310.738 246.595L310.186 250H313.157H316.128L315.844 239.25L315.56 228.5L313.31 228.18L311.06 227.861V232.43V237H305.117H299.175L298.867 232.75L298.56 228.5L296.31 228.18L294.06 227.861V238.93ZM320.292 230.75L318.387 233.5L318.311 239.5L318.235 245.5L319.694 247.786L321.153 250.071L330.845 249.786L340.537 249.5L340.872 247.75L341.207 246H332.633H324.06V244V242H332.56H341.06V239.5V237H332.56H324.06V235.5V234H332.56H341.06V232.934V231.869L340.025 229.934L338.99 228H330.593H322.196L320.292 230.75ZM357.435 229.466L356.846 231L357.422 232.5L357.997 234H362.029H366.06V242V250H368.56H371.06V242.057V234.115L375.31 233.807L379.56 233.5V231V228.5L368.792 228.216L358.023 227.932L357.435 229.466ZM387.81 230.566L383.06 233.038V241.519V250H385.56H388.06V247V244H393.887H399.714L399.273 247L398.833 250H401.987H405.141L404.85 241.751L404.56 233.501L399.56 230.774L394.56 228.047L393.56 228.07L392.56 228.093L387.81 230.566ZM408.06 237.811V247.755L409.459 248.916L410.859 250.078L420.209 249.789L429.56 249.5L429.849 247.5L430.138 245.5L421.822 245.817L413.505 246.134L413.533 237.317L413.56 228.5L410.81 228.184L408.06 227.867V237.811ZM434.81 230.47L433.06 232.876V240.238V247.6L434.26 248.8L435.46 250H444.653H453.846L454.453 248.418L455.06 246.836L455.062 246.168L455.065 245.5L446.562 245.823L438.06 246.147V244.073V242H446.56H455.06V239.5V237H446.56H438.06V235.5V234H446.56H455.06L455.028 232.75L454.996 231.5L453.668 229.75L452.34 228L444.45 228.031L436.56 228.063L434.81 230.47ZM460.234 230.314L458.06 232.629V241.314V250H460.56H463.06V242V234H468.817H474.575L474.212 242L473.848 250H476.954H480.06V241.174V232.349L477.746 230.174L475.431 228H468.92H462.409L460.234 230.314ZM483.727 228.667L483.06 229.333V231.667V234L487.31 233.998L491.56 233.995L491.234 241.998L490.908 250H493.984H497.06V242V234H501.06H505.06V231V228H494.727H484.393L483.727 228.667ZM522.06 237.8V247.6L523.26 248.8L524.46 250H534.105H543.75L545.446 248.126L547.142 246.252L546.851 237.376L546.56 228.5H544.06H541.56L541.271 237.25L540.982 246H539.06H537.138L536.849 237.25L536.56 228.5L533.737 228.177L530.914 227.853L531.237 236.929L531.56 246.005L529.31 246.002L527.06 246V237V228H524.56H522.06V237.8ZM549.769 228.624L549.06 229.333V239.667V250H552.094H555.128L554.844 239.25L554.56 228.5L552.519 228.208L550.478 227.916L549.769 228.624ZM558.06 230.966V234H562.06H566.06V242V250H569.06H572.06V242V234H576.126H580.193L579.876 231.25L579.56 228.5L568.81 228.216L558.06 227.932V230.966ZM583.769 228.624L583.06 229.333V239.667V250H586.169H589.279L588.879 246.578L588.48 243.156L594.272 242.828L600.064 242.5L600.062 246.25L600.06 250H602.56H605.06V239V228H602.56H600.06V232.5V237L594.31 237.001L588.56 237.003V232.751V228.5L586.519 228.208L584.478 227.916L583.769 228.624ZM608.769 228.624L608.06 229.333V239.667V250H611.094H614.128L613.844 239.25L613.56 228.5L611.519 228.208L609.478 227.916L608.769 228.624ZM619.099 230.189L617.06 232.377V241.189V250H619.56H622.06V241.95V233.9L627.725 234.2L633.39 234.5L633.16 242.25L632.929 250H635.495H638.06V241V232L636.06 230L634.06 228H627.599H621.138L619.099 230.189ZM194.11 235.526L197.06 237.051V237.776L197.061 238.5H191.063H185.066L185.063 237.403L185.06 236.306L187.31 235.22L189.56 234.135L190.36 234.068L191.159 234L194.11 235.526ZM397.11 235.526L400.06 237.051V237.776L400.061 238.5H394.063H388.066L388.063 237.403L388.06 236.306L390.31 235.22L392.56 234.135L393.36 234.068L394.159 234L397.11 235.526Z" fill="url(#paint2_linear_39_78)"/>
</g>
<path id="Layer 7" fill-rule="evenodd" clip-rule="evenodd" d="M80.276 238.75L80.56 249.5L89.755 249.787L98.95 250.074L100.044 248.03L101.138 245.986L100.849 237.243L100.56 228.5L98.35 228.186L96.14 227.871L95.85 236.686L95.56 245.5H90.06H84.56L84.271 236.75L83.982 228H81.987H79.992L80.276 238.75ZM106.234 230.314L104.06 232.629V241.314V250H107.022H109.984L109.772 241.999L109.56 233.999H115.31L121.06 234V242V250H123.56H126.06V241.174V232.349L123.746 230.174L121.431 228H114.92H108.409L106.234 230.314ZM129.06 237.279V246.69L130.889 248.345L132.717 250H141.889H151.06V249.082V248.164L151.573 246.832L152.086 245.5H143.459H134.832L134.696 237L134.56 228.5L131.81 228.184L129.06 227.867V237.279ZM156.234 230.314L154.06 232.629V239.659V246.69L155.889 248.345L157.717 250H166.782H175.846L176.453 248.418L177.06 246.836V246.418V246H168.56H160.06V244V242H168.56H177.06V239.5V237H168.56H160.06V235.5V234H168.56H177.06L177.028 232.75L176.996 231.5L175.668 229.75L174.34 228H166.374H158.409L156.234 230.314ZM185.231 230.512L180.06 232.908V241.454V250H182.56H185.06V247V244H190.887H196.714L196.273 247L195.833 250H198.947H202.06V241.661V233.321L199.31 232.036L196.56 230.751L193.481 229.434L190.402 228.116L185.231 230.512ZM206.133 230.635L204.06 233.27V235.461V237.651L206.374 239.826L208.689 242H214.874H221.06V244V246H212.453H203.846L204.453 247.582L205.06 249.164V249.582V250H214.405H223.75L225.405 248.171L227.06 246.343V243.846V241.349L224.746 239.174L222.431 237H216.246H210.06V235.5V234H218.56H227.06L227.028 232.75L226.996 231.5L225.668 229.75L224.34 228H216.272H208.205L206.133 230.635ZM230.06 239V250H232.56H235.06V246.589V243.178L240.943 242.839L246.826 242.5L246.463 246.25L246.099 250H249.114H252.128L251.844 239.262L251.56 228.524L249.68 228.163L247.8 227.803L246.989 229.115L246.178 230.427L246.437 233.714L246.696 237H240.878H235.06V232.5V228H232.56H230.06V239ZM268.563 229.991L267.931 231.982L268.554 232.991L269.178 234H273.119H277.06V242V250H279.56H282.06V242V234H286.56H291.06V231V228H280.127H269.195L268.563 229.991ZM294.06 238.93V250H296.56H299.06L299.058 246.25L299.056 242.5L305.174 242.845L311.291 243.189L310.738 246.595L310.186 250H313.157H316.128L315.844 239.25L315.56 228.5L313.31 228.18L311.06 227.861V232.43V237H305.117H299.175L298.867 232.75L298.56 228.5L296.31 228.18L294.06 227.861V238.93ZM320.292 230.75L318.387 233.5L318.311 239.5L318.235 245.5L319.694 247.786L321.153 250.071L330.845 249.786L340.537 249.5L340.872 247.75L341.207 246H332.633H324.06V244V242H332.56H341.06V239.5V237H332.56H324.06V235.5V234H332.56H341.06V232.934V231.869L340.025 229.934L338.99 228H330.593H322.196L320.292 230.75ZM357.435 229.466L356.846 231L357.422 232.5L357.997 234H362.029H366.06V242V250H368.56H371.06V242.057V234.115L375.31 233.807L379.56 233.5V231V228.5L368.792 228.216L358.023 227.932L357.435 229.466ZM387.81 230.566L383.06 233.038V241.519V250H385.56H388.06V247V244H393.887H399.714L399.273 247L398.833 250H401.987H405.141L404.85 241.751L404.56 233.501L399.56 230.774L394.56 228.047L393.56 228.07L392.56 228.093L387.81 230.566ZM408.06 237.811V247.755L409.459 248.916L410.859 250.078L420.209 249.789L429.56 249.5L429.849 247.5L430.138 245.5L421.822 245.817L413.505 246.134L413.533 237.317L413.56 228.5L410.81 228.184L408.06 227.867V237.811ZM434.81 230.47L433.06 232.876V240.238V247.6L434.26 248.8L435.46 250H444.653H453.846L454.453 248.418L455.06 246.836L455.062 246.168L455.065 245.5L446.562 245.823L438.06 246.147V244.073V242H446.56H455.06V239.5V237H446.56H438.06V235.5V234H446.56H455.06L455.028 232.75L454.996 231.5L453.668 229.75L452.34 228L444.45 228.031L436.56 228.063L434.81 230.47ZM460.234 230.314L458.06 232.629V241.314V250H460.56H463.06V242V234H468.817H474.575L474.212 242L473.848 250H476.954H480.06V241.174V232.349L477.746 230.174L475.431 228H468.92H462.409L460.234 230.314ZM483.727 228.667L483.06 229.333V231.667V234L487.31 233.998L491.56 233.995L491.234 241.998L490.908 250H493.984H497.06V242V234H501.06H505.06V231V228H494.727H484.393L483.727 228.667ZM522.06 237.8V247.6L523.26 248.8L524.46 250H534.105H543.75L545.446 248.126L547.142 246.252L546.851 237.376L546.56 228.5H544.06H541.56L541.271 237.25L540.982 246H539.06H537.138L536.849 237.25L536.56 228.5L533.737 228.177L530.914 227.853L531.237 236.929L531.56 246.005L529.31 246.002L527.06 246V237V228H524.56H522.06V237.8ZM549.769 228.624L549.06 229.333V239.667V250H552.094H555.128L554.844 239.25L554.56 228.5L552.519 228.208L550.478 227.916L549.769 228.624ZM558.06 230.966V234H562.06H566.06V242V250H569.06H572.06V242V234H576.126H580.193L579.876 231.25L579.56 228.5L568.81 228.216L558.06 227.932V230.966ZM583.769 228.624L583.06 229.333V239.667V250H586.169H589.279L588.879 246.578L588.48 243.156L594.272 242.828L600.064 242.5L600.062 246.25L600.06 250H602.56H605.06V239V228H602.56H600.06V232.5V237L594.31 237.001L588.56 237.003V232.751V228.5L586.519 228.208L584.478 227.916L583.769 228.624ZM608.769 228.624L608.06 229.333V239.667V250H611.094H614.128L613.844 239.25L613.56 228.5L611.519 228.208L609.478 227.916L608.769 228.624ZM619.099 230.189L617.06 232.377V241.189V250H619.56H622.06V241.95V233.9L627.725 234.2L633.39 234.5L633.16 242.25L632.929 250H635.495H638.06V241V232L636.06 230L634.06 228H627.599H621.138L619.099 230.189ZM194.11 235.526L197.06 237.051V237.776L197.061 238.5H191.063H185.066L185.063 237.403L185.06 236.306L187.31 235.22L189.56 234.135L190.36 234.068L191.159 234L194.11 235.526ZM397.11 235.526L400.06 237.051V237.776L400.061 238.5H394.063H388.066L388.063 237.403L388.06 236.306L390.31 235.22L392.56 234.135L393.36 234.068L394.159 234L397.11 235.526Z" fill="#FF0000"/>
<path id="Layer 8" fill-rule="evenodd" clip-rule="evenodd" d="M80.276 238.75L80.56 249.5L89.755 249.787L98.95 250.074L100.044 248.03L101.138 245.986L100.849 237.243L100.56 228.5L98.35 228.186L96.14 227.871L95.85 236.686L95.56 245.5H90.06H84.56L84.271 236.75L83.982 228H81.987H79.992L80.276 238.75ZM106.234 230.314L104.06 232.629V241.314V250H107.022H109.984L109.772 241.999L109.56 233.999H115.31L121.06 234V242V250H123.56H126.06V241.174V232.349L123.746 230.174L121.431 228H114.92H108.409L106.234 230.314ZM129.06 237.279V246.69L130.889 248.345L132.717 250H141.889H151.06V249.082V248.164L151.573 246.832L152.086 245.5H143.459H134.832L134.696 237L134.56 228.5L131.81 228.184L129.06 227.867V237.279ZM156.234 230.314L154.06 232.629V239.659V246.69L155.889 248.345L157.717 250H166.782H175.846L176.453 248.418L177.06 246.836V246.418V246H168.56H160.06V244V242H168.56H177.06V239.5V237H168.56H160.06V235.5V234H168.56H177.06L177.028 232.75L176.996 231.5L175.668 229.75L174.34 228H166.374H158.409L156.234 230.314ZM185.231 230.512L180.06 232.908V241.454V250H182.56H185.06V247V244H190.887H196.714L196.273 247L195.833 250H198.947H202.06V241.661V233.321L199.31 232.036L196.56 230.751L193.481 229.434L190.402 228.116L185.231 230.512ZM206.133 230.635L204.06 233.27V235.461V237.651L206.374 239.826L208.689 242H214.874H221.06V244V246H212.453H203.846L204.453 247.582L205.06 249.164V249.582V250H214.405H223.75L225.405 248.171L227.06 246.343V243.846V241.349L224.746 239.174L222.431 237H216.246H210.06V235.5V234H218.56H227.06L227.028 232.75L226.996 231.5L225.668 229.75L224.34 228H216.272H208.205L206.133 230.635ZM230.06 239V250H232.56H235.06V246.589V243.178L240.943 242.839L246.826 242.5L246.463 246.25L246.099 250H249.114H252.128L251.844 239.262L251.56 228.524L249.68 228.163L247.8 227.803L246.989 229.115L246.178 230.427L246.437 233.714L246.696 237H240.878H235.06V232.5V228H232.56H230.06V239ZM268.563 229.991L267.931 231.982L268.554 232.991L269.178 234H273.119H277.06V242V250H279.56H282.06V242V234H286.56H291.06V231V228H280.127H269.195L268.563 229.991ZM294.06 238.93V250H296.56H299.06L299.058 246.25L299.056 242.5L305.174 242.845L311.291 243.189L310.738 246.595L310.186 250H313.157H316.128L315.844 239.25L315.56 228.5L313.31 228.18L311.06 227.861V232.43V237H305.117H299.175L298.867 232.75L298.56 228.5L296.31 228.18L294.06 227.861V238.93ZM320.292 230.75L318.387 233.5L318.311 239.5L318.235 245.5L319.694 247.786L321.153 250.071L330.845 249.786L340.537 249.5L340.872 247.75L341.207 246H332.633H324.06V244V242H332.56H341.06V239.5V237H332.56H324.06V235.5V234H332.56H341.06V232.934V231.869L340.025 229.934L338.99 228H330.593H322.196L320.292 230.75ZM357.435 229.466L356.846 231L357.422 232.5L357.997 234H362.029H366.06V242V250H368.56H371.06V242.057V234.115L375.31 233.807L379.56 233.5V231V228.5L368.792 228.216L358.023 227.932L357.435 229.466ZM387.81 230.566L383.06 233.038V241.519V250H385.56H388.06V247V244H393.887H399.714L399.273 247L398.833 250H401.987H405.141L404.85 241.751L404.56 233.501L399.56 230.774L394.56 228.047L393.56 228.07L392.56 228.093L387.81 230.566ZM408.06 237.811V247.755L409.459 248.916L410.859 250.078L420.209 249.789L429.56 249.5L429.849 247.5L430.138 245.5L421.822 245.817L413.505 246.134L413.533 237.317L413.56 228.5L410.81 228.184L408.06 227.867V237.811ZM434.81 230.47L433.06 232.876V240.238V247.6L434.26 248.8L435.46 250H444.653H453.846L454.453 248.418L455.06 246.836L455.062 246.168L455.065 245.5L446.562 245.823L438.06 246.147V244.073V242H446.56H455.06V239.5V237H446.56H438.06V235.5V234H446.56H455.06L455.028 232.75L454.996 231.5L453.668 229.75L452.34 228L444.45 228.031L436.56 228.063L434.81 230.47ZM460.234 230.314L458.06 232.629V241.314V250H460.56H463.06V242V234H468.817H474.575L474.212 242L473.848 250H476.954H480.06V241.174V232.349L477.746 230.174L475.431 228H468.92H462.409L460.234 230.314ZM483.727 228.667L483.06 229.333V231.667V234L487.31 233.998L491.56 233.995L491.234 241.998L490.908 250H493.984H497.06V242V234H501.06H505.06V231V228H494.727H484.393L483.727 228.667ZM522.06 237.8V247.6L523.26 248.8L524.46 250H534.105H543.75L545.446 248.126L547.142 246.252L546.851 237.376L546.56 228.5H544.06H541.56L541.271 237.25L540.982 246H539.06H537.138L536.849 237.25L536.56 228.5L533.737 228.177L530.914 227.853L531.237 236.929L531.56 246.005L529.31 246.002L527.06 246V237V228H524.56H522.06V237.8ZM549.769 228.624L549.06 229.333V239.667V250H552.094H555.128L554.844 239.25L554.56 228.5L552.519 228.208L550.478 227.916L549.769 228.624ZM558.06 230.966V234H562.06H566.06V242V250H569.06H572.06V242V234H576.126H580.193L579.876 231.25L579.56 228.5L568.81 228.216L558.06 227.932V230.966ZM583.769 228.624L583.06 229.333V239.667V250H586.169H589.279L588.879 246.578L588.48 243.156L594.272 242.828L600.064 242.5L600.062 246.25L600.06 250H602.56H605.06V239V228H602.56H600.06V232.5V237L594.31 237.001L588.56 237.003V232.751V228.5L586.519 228.208L584.478 227.916L583.769 228.624ZM608.769 228.624L608.06 229.333V239.667V250H611.094H614.128L613.844 239.25L613.56 228.5L611.519 228.208L609.478 227.916L608.769 228.624ZM619.099 230.189L617.06 232.377V241.189V250H619.56H622.06V241.95V233.9L627.725 234.2L633.39 234.5L633.16 242.25L632.929 250H635.495H638.06V241V232L636.06 230L634.06 228H627.599H621.138L619.099 230.189ZM194.11 235.526L197.06 237.051V237.776L197.061 238.5H191.063H185.066L185.063 237.403L185.06 236.306L187.31 235.22L189.56 234.135L190.36 234.068L191.159 234L194.11 235.526ZM397.11 235.526L400.06 237.051V237.776L400.061 238.5H394.063H388.066L388.063 237.403L388.06 236.306L390.31 235.22L392.56 234.135L393.36 234.068L394.159 234L397.11 235.526Z" fill="#C4C4C4"/>
</g>
<defs>
<filter id="filter0_i_39_78" x="0" y="0.000244141" width="665.462" height="254.078" filterUnits="userSpaceOnUse" color-interpolation-filters="sRGB">
<feFlood flood-opacity="0" result="BackgroundImageFix"/>
<feBlend mode="normal" in="SourceGraphic" in2="BackgroundImageFix" result="shape"/>
<feColorMatrix in="SourceAlpha" type="matrix" values="0 0 0 0 0 0 0 0 0 0 0 0 0 0 0 0 0 0 127 0" result="hardAlpha"/>
<feOffset dx="6" dy="6"/>
<feGaussianBlur stdDeviation="2"/>
<feComposite in2="hardAlpha" operator="arithmetic" k2="-1" k3="1"/>
<feColorMatrix type="matrix" values="0 0 0 0 0 0 0 0 0 0 0 0 0 0 0 0 0 0 0.25 0"/>
<feBlend mode="normal" in2="shape" result="effect1_innerShadow_39_78"/>
</filter>
<filter id="filter1_i_39_78" x="0" y="0.000244141" width="642.06" height="253.078" filterUnits="userSpaceOnUse" color-interpolation-filters="sRGB">
<feFlood flood-opacity="0" result="BackgroundImageFix"/>
<feBlend mode="normal" in="SourceGraphic" in2="BackgroundImageFix" result="shape"/>
<feColorMatrix in="SourceAlpha" type="matrix" values="0 0 0 0 0 0 0 0 0 0 0 0 0 0 0 0 0 0 127 0" result="hardAlpha"/>
<feOffset dx="8" dy="3"/>
<feGaussianBlur stdDeviation="2"/>
<feComposite in2="hardAlpha" operator="arithmetic" k2="-1" k3="1"/>
<feColorMatrix type="matrix" values="0 0 0 0 0 0 0 0 0 0 0 0 0 0 0 0 0 0 0.25 0"/>
<feBlend mode="normal" in2="shape" result="effect1_innerShadow_39_78"/>
</filter>
<linearGradient id="paint0_linear_39_78" x1="330.731" y1="0.000244141" x2="330.731" y2="250.078" gradientUnits="userSpaceOnUse">
<stop stop-color="#24AEE1"/>
<stop offset="0.859375" stop-color="#354A9F"/>
</linearGradient>
<linearGradient id="paint1_linear_39_78" x1="330.731" y1="0.000244141" x2="330.731" y2="250.078" gradientUnits="userSpaceOnUse">
<stop stop-color="#23ADE1"/>
<stop offset="0.578125" stop-color="#354A9E"/>
</linearGradient>
<linearGradient id="paint2_linear_39_78" x1="319.03" y1="0.000244141" x2="319.03" y2="250.078" gradientUnits="userSpaceOnUse">
<stop stop-color="#F3B01B"/>
<stop offset="0.5625" stop-color="#C46128"/>
</linearGradient>
</defs>
</svg>
