<svg width="330" height="357" viewBox="0 0 330 357" fill="none" xmlns="http://www.w3.org/2000/svg">
<path fill-rule="evenodd" clip-rule="evenodd" d="M158.414 0.917019C151.43 3.57602 145.538 8.41302 140.682 15.472C135.403 23.147 134.202 34.51 137.56 44.996C140.468 54.075 150.276 63.551 159.933 66.613L163.453 67.729L163.174 75.477C163.021 79.739 162.463 89.526 161.933 97.226C160.497 118.089 159.443 138.029 159.687 139.726C159.805 140.551 159.446 146.851 158.888 153.726C158.331 160.601 157.682 170.501 157.447 175.726C157.213 180.951 156.311 198.276 155.445 214.226C154.578 230.176 153.628 248.851 153.333 255.726C153.039 262.601 152.59 269.238 152.337 270.476C151.929 272.466 151.267 272.726 146.618 272.726H141.361L141.995 265.476C142.344 261.488 143.161 255.301 143.811 251.726C146.468 237.102 146.806 234.977 147.39 229.226C147.726 225.926 148.425 220.976 148.946 218.226C149.917 213.093 150.072 211.967 152.04 195.747L153.19 186.268L147.56 181.151L141.93 176.035L143.314 171.63C144.074 169.208 145.201 164.751 145.816 161.726C148.14 150.308 153.556 126.206 157.314 110.562C158.194 106.897 158.914 102.389 158.914 100.546C158.914 97.648 158.27 96.774 154.164 94.097C151.552 92.394 146.827 89.546 143.664 87.768C140.502 85.99 137.696 84.183 137.43 83.752C137.164 83.321 137.639 81.581 138.485 79.884C139.332 78.187 140.271 73.745 140.572 70.012C141.011 64.578 140.697 62.107 138.995 57.609C136.322 50.544 129.241 43.011 121.903 39.425C111.076 34.134 97.4475 34.905 87.7095 41.359C84.7965 43.29 80.9905 46.75 79.2505 49.048C75.2875 54.283 72.0456 63.968 72.4976 69.226C72.6876 71.426 73.8656 75.821 75.1166 78.992C78.8456 88.442 85.5466 94.412 96.1586 97.739C99.5986 98.818 104.36 99.706 106.738 99.713C109.116 99.72 114.459 98.586 118.611 97.192C125.762 94.791 126.294 94.745 128.689 96.314C134.942 100.411 140.381 105.116 140.03 106.124C139.82 106.73 137.77 112.987 135.477 120.028L131.307 132.831L126.11 128.693C121.753 125.224 120.914 124.028 120.914 121.289C120.914 116.512 117.124 111.496 112.226 109.789C108.855 108.615 107.361 108.575 104.035 109.572C99.2966 110.991 95.0836 115.879 94.2846 120.883C93.8896 123.358 94.3556 125.111 96.0826 127.634C99.2266 132.231 103.02 134.888 106.87 135.191C108.925 135.353 111.015 136.497 112.738 138.403C119.837 146.259 122.914 150.076 122.914 151.028C122.914 151.6 120.811 158.305 118.241 165.927L113.568 179.784L100.905 167.255L88.2416 154.726H77.5965H66.9516L66.2915 151.976C65.1815 147.356 58.8526 139.662 53.1726 136.029C43.0336 129.543 32.6426 128.36 21.1556 132.384C14.1326 134.844 7.81155 140.038 3.74955 146.685C0.793554 151.522 0.372555 153.109 0.0545548 160.599C-0.143445 165.255 0.214553 170.788 0.852553 172.916C3.24055 180.886 9.89655 187.957 18.9686 192.16C25.8966 195.37 33.1686 196.23 40.5026 194.708C49.8876 192.759 56.7876 188.39 62.2666 180.926C64.1916 178.303 66.0566 175.005 66.4096 173.596C67.0436 171.074 67.1676 171.042 74.7336 171.491C78.9576 171.741 82.9316 172.459 83.5636 173.086C84.1966 173.713 85.9966 176.08 87.5636 178.347C89.1316 180.613 94.1266 187.681 98.6636 194.053C103.201 200.425 106.914 206.127 106.914 206.724C106.914 208.113 97.3085 237.778 94.9335 243.726C93.9445 246.201 91.0536 254.703 88.5086 262.62L83.8806 277.015L71.6476 289.61C64.9186 296.537 57.2486 304.376 54.6026 307.028C51.2566 310.381 49.8856 312.517 50.1026 314.038L50.4136 316.226L129.164 316.482C180.506 316.649 207.914 317.084 207.914 317.732C207.914 318.383 179.523 318.726 125.741 318.726H43.5686L29.1586 332.976C21.2336 340.814 13.8556 348.463 12.7636 349.975C11.5286 351.686 11.0186 353.481 11.4136 354.725C12.0446 356.715 12.9086 356.726 170.422 356.726C279.13 356.726 328.998 356.399 329.44 355.685C330.077 354.653 320.149 343.88 288.684 311.463L272.414 294.7L205.164 294.713C138.334 294.726 137.914 294.713 137.914 292.704C137.914 290.697 138.347 290.683 198.664 290.726C232.077 290.751 259.946 290.761 260.597 290.748C261.247 290.736 262.072 289.805 262.429 288.679C262.898 287.202 262.068 285.4 259.45 282.204C257.454 279.768 255.271 277.202 254.599 276.501C253.505 275.36 250.563 269.23 244.631 255.726C243.543 253.251 241.812 249.396 240.784 247.16C239.755 244.924 238.914 242.841 238.914 242.531C238.914 242.045 236.269 236.278 226.732 215.976L224.736 211.726L226.923 206.976C228.126 204.363 230.439 199.301 232.061 195.726C235.048 189.147 238.159 182.506 238.545 181.889C238.661 181.703 240.254 181.179 242.085 180.724C243.916 180.269 247.731 179.261 250.564 178.484L255.713 177.071L257.864 181.83C259.047 184.447 261.733 188.359 263.832 190.522C268.729 195.568 277.27 199.593 284.626 200.322C294.155 201.266 304.669 196.945 312.896 188.706C315.585 186.014 320.002 175.777 320.58 170.9C321.335 164.527 318.7 154.647 314.795 149.21C311.392 144.472 306.364 140.096 300.914 137.13C298.087 135.592 295.396 135.233 286.914 135.264C277.699 135.297 275.924 135.592 272.414 137.671C265.797 141.592 259.359 148.999 256.774 155.666C254.726 160.949 254.038 161.786 251.419 162.184C240.657 163.819 229.198 166.033 227.978 166.713C226.445 167.568 220.927 176.781 218.238 182.976C217.343 185.039 216.111 186.726 215.499 186.726C214.888 186.726 213.461 183.115 212.327 178.703C210.63 172.096 210.499 170.485 211.59 169.58C212.318 168.976 212.914 168.096 212.914 167.626C212.914 167.155 215.68 162.71 219.062 157.748C224.172 150.248 225.651 148.726 227.827 148.726C231.834 148.726 237.056 145.451 239.087 141.664C241.17 137.78 241.387 134.382 239.837 129.935C238.572 126.305 233.242 121.942 229.05 121.103C224.741 120.241 219.45 122.351 215.964 126.322C213.458 129.176 212.914 130.664 212.914 134.658C212.914 138.915 212.389 140.144 208.698 144.522L204.482 149.523L202.796 143.374C201.868 139.993 200.379 134.573 199.486 131.33C198.024 126.018 198.016 125.226 199.399 123.33C200.244 122.173 202.123 119.426 203.574 117.226C205.026 115.026 206.503 113.001 206.857 112.726C207.211 112.451 208.766 110.194 210.313 107.711L213.126 103.197L219.804 106.511C228.234 110.696 235.264 111.52 243.821 109.328C255.193 106.415 265.402 96.736 268.559 85.875C270.518 79.136 269.95 70.857 267.084 64.378C264.375 58.254 256.165 50.188 249.564 47.166C246.637 45.826 241.55 44.448 238.259 44.104C226.994 42.927 215.546 48.226 207.728 58.235C203.682 63.417 203.568 63.481 201.624 61.671C200.535 60.656 198.38 59.548 196.836 59.209L194.029 58.592L197.444 54.119C203.446 46.256 204.421 43.233 204.346 32.726C204.285 24.339 203.968 22.697 201.639 18.707C197.414 11.469 192.525 6.37802 186.773 3.22602C181.996 0.608017 180.328 0.261017 171.414 0.0320168C165.671 -0.115983 160.137 0.261019 158.414 0.917019ZM162.735 7.07302C154.257 9.44302 146.924 16.721 144.33 25.34C142.52 31.352 142.548 34.13 144.481 40.639C146.472 47.346 152.721 54.289 159.414 57.234C162.925 58.779 166.23 59.403 170.511 59.33C173.864 59.273 177.28 58.667 178.103 57.985C178.925 57.302 179.891 57.037 180.25 57.395C180.608 57.754 181.804 57.23 182.908 56.232C184.011 55.233 184.914 54.795 184.914 55.258C184.914 56.875 191.114 50.189 193.753 45.726C196.044 41.852 196.412 40.112 196.397 33.226C196.383 26.974 195.91 24.352 194.231 21.226C191.466 16.077 185.391 10.231 180.832 8.33202C175.497 6.10902 168.036 5.59002 162.735 7.07302ZM176.914 11.711C181.806 13.072 187.831 18.333 190.021 23.155C191.154 25.649 191.875 29.551 191.884 33.226C191.895 37.983 191.33 40.191 189.156 43.886C186.475 48.442 176.914 56.807 176.914 54.597C176.914 53.777 176.558 53.776 175.572 54.595C174.834 55.207 173.909 55.388 173.518 54.996C173.126 54.604 172.387 54.946 171.875 55.755C171.133 56.928 170.942 56.948 170.929 55.854C170.917 54.747 170.623 54.722 169.414 55.726C168.296 56.654 167.914 56.67 167.914 55.789C167.914 55.14 167.546 54.836 167.096 55.114C165.428 56.144 156.167 50.857 153.068 47.105C146.945 39.691 146.34 29.423 151.532 21.026C153.621 17.647 155.957 15.524 159.794 13.52C165.474 10.553 170.749 9.99602 176.914 11.711ZM161.364 16.312C156.354 19.592 152.131 25.054 151.338 29.277C150.459 33.965 153.35 43.008 156.846 46.504C160.759 50.417 170.064 53.076 175.04 51.702C179.82 50.382 188.856 40.933 189.065 37.036C189.347 31.772 188.728 28.282 186.864 24.628C183.44 17.916 176.36 13.746 168.364 13.732C166.687 13.729 163.537 14.89 161.364 16.312ZM169.914 18.726C169.914 19.276 170.926 19.728 172.164 19.73C176.264 19.737 180.578 23.279 182.447 28.174C183.925 32.043 184.022 33.424 183.044 36.685C181.784 40.891 176.899 45.726 173.909 45.726C172.89 45.726 171.347 46.436 170.479 47.304C168.016 49.766 163.586 48.179 158.982 43.184C155.481 39.385 154.914 38.144 154.914 34.269C154.914 27.469 157.503 21.995 161.789 19.73C165.729 17.648 169.914 17.131 169.914 18.726ZM181.477 21.976L184.414 25.226L181.164 22.289C178.135 19.551 177.454 18.726 178.227 18.726C178.399 18.726 179.862 20.188 181.477 21.976ZM165.414 20.674C164.314 21.138 162.072 22.936 160.432 24.669C158.15 27.08 157.473 28.699 157.548 31.564C157.751 39.303 163.054 44.999 170.054 44.999C176.861 44.999 182.187 39.673 182.187 32.866C182.187 26.41 177.839 21.805 170.414 20.399C168.764 20.086 166.514 20.21 165.414 20.674ZM174.369 25.347C176.307 26.091 178.914 30.836 178.914 33.621C178.914 34.717 177.847 36.855 176.544 38.37C173.429 41.992 168.07 42.161 164.441 38.752C163.051 37.446 161.914 35.781 161.914 35.052C161.914 32.959 165.296 33.507 166.75 35.836C167.766 37.462 168.721 37.815 170.921 37.375C172.692 37.02 173.966 37.263 174.281 38.015C174.628 38.844 175.281 38.614 176.351 37.285C178.165 35.032 178.345 32.401 176.874 29.651C176.104 28.213 175.194 27.868 173.374 28.325C171.343 28.835 170.914 28.575 170.914 26.834C170.914 24.631 171.663 24.309 174.369 25.347ZM182.914 43.104C182.914 43.311 182.127 44.099 181.164 44.854C179.578 46.097 179.543 46.062 180.786 44.476C182.093 42.81 182.914 42.281 182.914 43.104ZM92.5806 49.393C92.2136 49.759 91.9136 50.434 91.9136 50.893C91.9136 51.351 98.8886 51.726 107.414 51.726H122.914V60.226V68.726H111.414H99.9136V61.926C99.9136 57.97 99.4116 54.624 98.7136 53.926C97.4636 52.676 89.2456 52.278 86.4956 53.333C85.1666 53.843 84.9136 55.992 84.9136 66.751C84.9136 73.797 85.1866 80.274 85.5206 81.144C85.9846 82.354 87.6036 82.726 92.4136 82.726C99.0376 82.726 99.9156 82.101 99.9116 77.394C99.9096 75.277 100.181 75.233 111.485 75.538C119.353 75.75 123.517 75.47 124.487 74.665C125.567 73.769 125.914 70.765 125.914 62.304C125.914 54.943 125.504 50.716 124.714 49.926C123.886 49.098 118.818 48.726 108.381 48.726C100.057 48.726 92.9466 49.026 92.5806 49.393ZM220.914 55.361C220.914 57.289 216.718 61.424 214.282 61.896C213.346 62.077 212.392 62.789 212.164 63.476C211.902 64.261 212.709 64.726 214.331 64.726C215.752 64.726 216.914 65.176 216.914 65.726C216.914 66.276 215.789 66.726 214.414 66.726C212.858 66.726 211.914 67.293 211.914 68.226C211.914 69.159 212.858 69.726 214.414 69.726C217.482 69.726 217.743 71.465 214.742 71.906C211.541 72.378 211.198 74.726 214.331 74.726C215.752 74.726 216.914 75.176 216.914 75.726C216.914 76.276 215.752 76.726 214.331 76.726C211.198 76.726 211.541 79.074 214.742 79.546C217.787 79.994 217.46 81.726 214.331 81.726C211.198 81.726 211.541 84.074 214.742 84.546C217.743 84.987 217.482 86.726 214.414 86.726C212.858 86.726 211.914 87.293 211.914 88.226C211.914 89.117 212.832 89.726 214.173 89.726C215.416 89.726 216.995 90.626 217.682 91.726C218.369 92.826 219.552 93.726 220.311 93.726C221.071 93.726 221.629 94.513 221.553 95.476C221.477 96.439 222.089 97.226 222.914 97.226C223.739 97.226 224.352 96.439 224.275 95.476C224.199 94.513 224.536 93.726 225.025 93.726C225.514 93.726 225.914 94.626 225.914 95.726C225.914 96.837 226.581 97.726 227.414 97.726C228.247 97.726 228.914 96.837 228.914 95.726C228.914 94.626 229.364 93.726 229.914 93.726C230.464 93.726 230.914 94.626 230.914 95.726C230.914 96.837 231.581 97.726 232.414 97.726C233.247 97.726 233.914 96.837 233.914 95.726C233.914 94.626 234.364 93.726 234.914 93.726C235.464 93.726 235.914 94.626 235.914 95.726C235.914 96.837 236.581 97.726 237.414 97.726C238.247 97.726 238.914 96.837 238.914 95.726C238.914 94.626 239.364 93.726 239.914 93.726C240.464 93.726 240.914 94.626 240.914 95.726C240.914 96.837 241.581 97.726 242.414 97.726C243.247 97.726 243.914 96.837 243.914 95.726C243.914 94.626 244.364 93.726 244.914 93.726C245.464 93.726 245.914 94.626 245.914 95.726C245.914 98.183 248.901 98.429 248.946 95.976C248.987 93.689 253.382 88.726 255.366 88.726C256.217 88.726 256.914 88.051 256.914 87.226C256.914 86.285 255.889 85.682 254.164 85.608L251.414 85.489L254.357 84.858C258.088 84.057 258.269 82.324 254.664 81.91C251.261 81.518 251.008 79.726 254.355 79.726C257.222 79.726 258.741 77.933 256.477 77.219C255.618 76.948 254.126 76.415 253.164 76.036C251.774 75.487 251.979 75.268 254.164 74.969C257.656 74.492 257.869 71.726 254.414 71.726C253.039 71.726 251.914 71.276 251.914 70.726C251.914 70.176 253.039 69.726 254.414 69.726C255.97 69.726 256.914 69.159 256.914 68.226C256.914 67.293 255.97 66.726 254.414 66.726C253.039 66.726 251.914 66.276 251.914 65.726C251.914 65.176 253.039 64.726 254.414 64.726C255.97 64.726 256.914 64.159 256.914 63.226C256.914 62.401 256.034 61.726 254.959 61.726C252.679 61.726 247.914 57.299 247.914 55.181C247.914 54.381 247.239 53.726 246.414 53.726C245.581 53.726 244.914 54.615 244.914 55.726C244.914 56.826 244.464 57.726 243.914 57.726C243.364 57.726 242.914 56.826 242.914 55.726C242.914 54.615 242.247 53.726 241.414 53.726C240.581 53.726 239.914 54.615 239.914 55.726C239.914 56.826 239.506 57.726 239.008 57.726C238.509 57.726 238.348 56.781 238.651 55.625C239.086 53.962 238.806 53.605 237.307 53.911C236.174 54.143 235.532 54.986 235.708 56.012C235.872 56.97 235.37 57.726 234.569 57.726C233.781 57.726 233.199 56.939 233.275 55.976C233.352 55.013 232.739 54.226 231.914 54.226C231.089 54.226 230.477 55.013 230.553 55.976C230.629 56.939 230.292 57.726 229.803 57.726C229.314 57.726 228.914 56.826 228.914 55.726C228.914 54.615 228.247 53.726 227.414 53.726C226.581 53.726 225.914 54.615 225.914 55.726C225.914 56.826 225.464 57.726 224.914 57.726C224.364 57.726 223.914 56.826 223.914 55.726C223.914 54.615 223.247 53.726 222.414 53.726C221.589 53.726 220.914 54.462 220.914 55.361ZM96.9136 56.726C96.9136 57.276 94.8886 57.726 92.4136 57.726C89.9386 57.726 87.9136 57.276 87.9136 56.726C87.9136 56.176 89.9386 55.726 92.4136 55.726C94.8886 55.726 96.9136 56.176 96.9136 56.726ZM95.1776 61.43C93.9476 61.667 91.6976 61.673 90.1776 61.444C88.6576 61.214 89.6636 61.02 92.4136 61.012C95.1636 61.005 96.4076 61.193 95.1776 61.43ZM230.665 63.976C230.436 64.664 228.936 65.453 227.332 65.731C225.048 66.126 224.345 66.832 224.098 68.981C223.583 73.449 221.914 72.108 221.914 67.226V62.726H226.497C229.719 62.726 230.957 63.097 230.665 63.976ZM235.914 64.052C235.914 65.48 232.792 68.455 229.164 70.484C227.269 71.544 226.914 71.505 226.914 70.234C226.914 69.298 227.848 68.726 229.379 68.726C231.926 68.726 234.51 65.5 233.401 63.705C233.068 63.167 233.498 62.726 234.355 62.726C235.212 62.726 235.914 63.323 235.914 64.052ZM242.581 65.726C242.581 67.854 242.098 68.726 240.922 68.726C238.861 68.726 235.236 72.546 234.754 75.226C234.446 76.934 233.482 77.269 228.154 77.524C223.269 77.757 221.914 77.511 221.914 76.39C221.914 74.424 226.93 73.6 228.619 75.288C229.363 76.032 230.521 76.427 231.193 76.166C231.865 75.905 233.44 73.899 234.694 71.709C235.948 69.518 237.41 67.726 237.944 67.726C238.477 67.726 238.914 66.601 238.914 65.226C238.914 63.468 239.458 62.726 240.747 62.726C242.118 62.726 242.581 63.484 242.581 65.726ZM247.914 75.726C247.914 83.726 247.529 88.726 246.914 88.726C246.364 88.726 245.914 87.628 245.914 86.285C245.914 84.942 245.464 83.566 244.914 83.226C243.55 82.383 243.651 78.389 245.072 76.968C245.948 76.092 245.919 75.437 244.949 74.268C243.331 72.318 241.51 72.303 239.914 74.226C238.935 75.406 238.929 76.039 239.886 77.192C240.555 77.999 240.896 79.236 240.644 79.942C240.391 80.648 240.664 82.126 241.25 83.226C241.837 84.326 242.448 86.013 242.609 86.976C242.872 88.55 241.847 88.726 232.408 88.726C226.079 88.726 221.914 88.329 221.914 87.726C221.914 87.176 223.377 86.681 225.164 86.626C226.951 86.571 229.539 86.203 230.914 85.807C232.289 85.41 234.194 85.559 235.148 86.137C236.465 86.935 237.297 86.771 238.612 85.456C240.215 83.854 240.221 83.605 238.706 82.089C237.621 81.005 236.453 80.719 235.242 81.243C234.236 81.678 232.666 81.943 231.753 81.832C230.839 81.721 229.8 82.102 229.444 82.678C229.087 83.254 227.248 83.726 225.355 83.726C222.963 83.726 221.914 83.269 221.914 82.226C221.914 81.049 223.291 80.726 228.307 80.726C232.425 80.726 234.92 80.281 235.318 79.476C237.511 75.041 239.836 72.178 241.495 71.868C244.674 71.276 245.914 69.659 245.914 66.104C245.914 64.246 246.364 62.726 246.914 62.726C247.529 62.726 247.914 67.726 247.914 75.726ZM180.906 67.236C180.134 68.166 179.857 70.261 180.183 72.696C180.538 75.344 180.269 77.017 179.365 77.766C178.26 78.684 178.023 77.802 178.046 72.863C178.069 68.098 178.423 66.749 179.745 66.4C180.663 66.157 181.582 65.906 181.786 65.842C181.991 65.778 181.595 66.405 180.906 67.236ZM103.529 79.191C102.641 80.546 101.914 81.896 101.914 82.191C101.914 82.485 105.064 82.726 108.914 82.726C112.764 82.726 115.914 82.485 115.914 82.191C115.914 81.896 115.187 80.546 114.299 79.191C113.055 77.293 111.817 76.726 108.914 76.726C106.011 76.726 104.773 77.293 103.529 79.191ZM202.215 85.455C202.522 86.979 203.041 88.914 203.367 89.756C203.933 91.219 202.505 93.351 195.38 101.68C193.712 103.63 191.157 106.801 189.702 108.726C188.247 110.651 185.9 113.533 184.486 115.132C183.071 116.73 181.849 118.53 181.77 119.132C181.691 119.733 181.281 116.401 180.859 111.726C179.992 102.116 180.175 101.613 188.737 90.045C191.745 85.982 194.128 83.721 195.414 83.711C196.514 83.702 198.068 83.282 198.866 82.777C200.805 81.55 201.546 82.143 202.215 85.455ZM6.91355 138.785C6.91355 139.367 7.36355 139.566 7.91355 139.226C8.46355 138.886 8.91355 138.41 8.91355 138.167C8.91355 137.924 8.46355 137.726 7.91355 137.726C7.36355 137.726 6.91355 138.203 6.91355 138.785ZM21.9136 141.011C16.4986 143.348 13.4986 145.934 10.1946 151.114C7.99155 154.567 7.75355 155.871 8.06755 162.775C8.38055 169.663 8.76855 170.986 11.4746 174.387C15.0116 178.832 21.9826 182.726 26.4026 182.726C30.4916 182.726 33.6086 180.391 34.4136 176.725C34.7766 175.075 35.6416 173.726 36.3376 173.726C38.1326 173.726 41.1126 170.184 41.5766 167.498C43.1476 158.412 43.1436 157.726 41.5226 157.726C40.4376 157.726 39.9086 156.831 39.8986 154.976C39.8766 151.022 38.5586 149.387 36.0386 150.186C34.4156 150.701 33.9136 151.672 33.9136 154.293C33.9136 156.754 33.4666 157.726 32.3356 157.726C31.1196 157.726 30.8326 156.864 31.0856 153.976C31.3866 150.533 31.1886 150.2 28.6636 149.91C26.0746 149.612 25.9136 149.824 25.9136 153.543C25.9136 156.652 25.4876 157.604 23.9136 158.016C22.5776 158.365 21.9136 159.38 21.9136 161.073C21.9136 162.467 22.3636 163.886 22.9136 164.226C23.4636 164.566 23.9136 165.877 23.9136 167.139C23.9136 168.401 25.0666 170.678 26.4756 172.198C29.5096 175.472 29.0476 178.313 25.6516 177.258C24.4206 176.875 22.5736 176.454 21.5476 176.321C18.9116 175.98 13.0266 168.844 12.3326 165.147C10.8656 157.324 16.7366 147.908 24.6726 145.356C30.9856 143.327 40.0156 143.95 43.8496 146.68C50.9116 151.709 54.0906 159.093 52.4356 166.624C52.0376 168.438 49.5546 171.893 46.4046 175.018C43.4596 177.94 41.3576 180.801 41.7326 181.378C42.8056 183.029 45.2426 183.479 46.7376 182.302C50.5576 179.296 55.2486 173.87 56.5036 171.008C57.2786 169.238 57.9136 165.132 57.9136 161.884C57.9136 157.463 57.2926 154.867 55.4436 151.558C54.0846 149.127 51.8936 146.2 50.5746 145.053C49.2566 143.907 45.5716 141.993 42.3876 140.802C35.4096 138.191 28.2796 138.264 21.9136 141.011ZM182.603 146.476C182.352 147.439 182.146 146.651 182.146 144.726C182.146 142.801 182.352 142.013 182.603 142.976C182.855 143.939 182.855 145.513 182.603 146.476ZM297.795 148.994C296.335 150.971 295.434 151.156 288.631 150.872C282.736 150.626 280.086 150.999 276.516 152.578C269.664 155.609 264.914 159.58 264.914 162.277C264.914 165.555 268.46 166.485 271.249 163.937C274.68 160.803 279.624 158.666 284.884 158.043C289.783 157.463 295.667 158.306 294.545 159.428C294.213 159.76 291.086 160.076 287.598 160.129C282.376 160.209 280.385 160.764 276.334 163.269C272.701 165.515 271.414 166.926 271.414 168.66C271.414 169.951 272.181 171.492 273.119 172.084C274.452 172.924 275.325 172.69 277.119 171.009C278.381 169.827 280.681 168.379 282.229 167.793C286.077 166.335 290.915 166.437 290.911 167.976C290.909 168.758 289.416 169.244 286.919 169.274C282.063 169.333 277.414 172.488 277.414 175.725C277.414 176.981 278.147 178.47 279.042 179.035C280.271 179.81 281.348 179.53 283.427 177.894C286.431 175.532 287.914 175.154 287.914 176.751C287.914 177.314 286.777 178.208 285.387 178.736C282.424 179.863 280.757 183.474 282.055 185.953C282.553 186.903 283.88 188.172 285.004 188.774C286.592 189.624 287.613 189.498 289.581 188.208C291.873 186.707 292.051 186.122 291.445 182.086C290.805 177.815 290.862 177.676 292.764 178.864C294.359 179.861 295.064 179.847 296.333 178.793C298.512 176.984 298.313 173.992 295.914 172.494C294.023 171.313 293.12 168.726 294.6 168.726C294.977 168.726 296.347 169.723 297.644 170.943C299.489 172.675 300.376 172.926 301.709 172.09C304.444 170.376 304.315 167.187 301.418 164.908C299.986 163.781 298.274 162.66 297.614 162.418C296.78 162.111 296.73 161.637 297.451 160.864C298.2 160.061 299.554 160.63 302.32 162.909C305.288 165.356 306.518 165.836 307.782 165.044C308.68 164.482 309.55 163.112 309.717 161.999C309.929 160.587 308.732 159.029 305.744 156.832C301.952 154.043 301.501 153.293 301.767 150.207C302.118 146.137 300.311 145.585 297.795 148.994ZM185.328 163.298C185.703 167.658 186.421 173.476 186.923 176.226C188.981 187.489 189.877 193.556 190.393 199.726C190.693 203.301 191.374 208.476 191.906 211.226C193.218 218.003 193.647 220.808 194.889 230.726C196.609 244.475 196.829 245.979 197.889 251.226C198.445 253.976 199.116 259.197 199.382 262.828C199.647 266.46 200.148 270.172 200.496 271.078C201.036 272.487 200.321 272.726 195.566 272.726C190.06 272.726 190 272.694 189.509 269.476C189.237 267.688 188.777 261.051 188.487 254.726C187.969 243.412 186.367 213.397 185.391 196.726C184.122 175.033 182.967 153.087 183.024 151.726C183.167 148.276 184.696 155.961 185.328 163.298ZM229.401 238.348C231.445 243.241 231.294 243.82 228.914 240.226C227.047 237.406 226.309 234.726 227.401 234.726C227.668 234.726 228.568 236.356 229.401 238.348ZM202.597 249.914C202.278 250.711 202.041 250.474 201.993 249.309C201.95 248.255 202.186 247.665 202.518 247.997C202.85 248.329 202.886 249.192 202.597 249.914ZM157.597 261.914C157.278 262.711 157.041 262.474 156.993 261.309C156.95 260.255 157.186 259.665 157.518 259.997C157.85 260.329 157.886 261.192 157.597 261.914ZM151.164 277.458C148.826 277.669 145.002 277.669 142.664 277.458C140.326 277.248 142.239 277.075 146.914 277.075C151.589 277.075 153.502 277.248 151.164 277.458ZM201.194 277.457C198.873 277.666 194.823 277.669 192.194 277.462C189.565 277.256 191.464 277.084 196.414 277.081C201.364 277.078 203.515 277.247 201.194 277.457ZM270.994 299.276C273.352 300.733 269.877 301.217 259.767 300.839C254.073 300.627 250.457 300.177 251.731 299.839C255.261 298.905 269.71 298.482 270.994 299.276ZM81.8306 323.098C81.0846 323.763 66.6576 324.67 56.4136 324.696L46.4136 324.721L34.6246 336.947C24.8766 347.058 23.1456 349.295 24.6246 349.879C25.9556 350.405 25.6456 350.605 23.4136 350.662C21.7636 350.704 19.1766 351.384 17.6636 352.173C16.1506 352.962 14.9136 353.33 14.9136 352.992C14.9136 352.653 21.5316 345.705 29.6206 337.551L44.3276 322.726H63.2866C73.7146 322.726 82.0596 322.893 81.8306 323.098ZM311.914 343.726C312.503 344.826 312.759 345.726 312.484 345.726C312.209 345.726 311.503 344.826 310.914 343.726C310.325 342.626 310.069 341.726 310.344 341.726C310.619 341.726 311.325 342.626 311.914 343.726ZM318.831 350.465C319.06 350.609 317.935 350.69 316.331 350.647C314.727 350.604 313.995 350.335 314.706 350.05C315.754 349.629 315.757 349.22 314.723 347.879C313.861 346.761 314.252 346.87 315.931 348.215C317.297 349.309 318.602 350.322 318.831 350.465Z" fill="url(#paint0_linear_36_15)" fill-opacity="0.58"/>
<defs>
<linearGradient id="paint0_linear_36_15" x1="164.734" y1="0" x2="164.734" y2="356.726" gradientUnits="userSpaceOnUse">
<stop stop-color="#FAC71E"/>
<stop offset="0.671875" stop-color="#CD7B29"/>
</linearGradient>
</defs>
</svg>
