<svg width="300" height="491" viewBox="0 0 300 491" fill="none" xmlns="http://www.w3.org/2000/svg">
<rect width="300" height="491" fill="white"/>
<path d="M225 75C225 116.421 191.421 150 150 150C108.579 150 74.9999 116.421 74.9999 75C74.9999 33.5787 108.579 0 150 0C191.421 0 225 33.5787 225 75Z" fill="#D9D9D9"/>
<path d="M0 145.134C0 125.73 15.7299 110 35.1338 110H42.7326C63.2705 110 82.842 118.723 96.5731 133.995L97.9302 135.505C126.359 167.126 176.081 166.632 203.877 134.454V134.454C217.29 118.926 236.794 110 257.314 110H265.36C284.491 110 300 125.509 300 144.64V472.857C300 482.877 291.877 491 281.857 491H18.1429C8.12283 491 0 482.877 0 472.857V145.134Z" fill="#D9D9D9"/>
</svg>
