<svg width="300" height="182" viewBox="0 0 300 182" fill="none" xmlns="http://www.w3.org/2000/svg">
<g opacity="0.25">
<path d="M0.939919 103.533L14.7068 84.2727C30.1183 62.7114 60.6358 58.8602 80.9207 75.9169L88.1041 81.9571C107.316 98.1115 136.619 91.6784 147.298 68.9619V68.9619C158.249 45.6659 188.629 39.6344 207.649 56.9802L216.714 65.2479C234.002 81.0141 260.222 81.762 278.38 67.0069L297.859 51.1782" stroke="black" stroke-opacity="0.5" stroke-width="2"/>
<path d="M0.93992 149.627L14.7068 130.367C30.1183 108.805 60.6358 104.954 80.9207 122.011L88.1042 128.051C107.316 144.206 136.619 137.772 147.298 115.056V115.056C158.249 91.7599 188.629 85.7284 207.649 103.074L216.714 111.342C234.002 127.108 260.222 127.856 278.38 113.101L297.859 97.2722" stroke="black" stroke-opacity="0.5" stroke-width="2"/>
</g>
</svg>
